<svg width="20" height="20" viewBox="0 0 20 20" fill="none" xmlns="http://www.w3.org/2000/svg">
<g clip-path="url(#clip0_1313_4)">
<path d="M9.97266 0H11.0371L11.6133 0.0585938L12.0625 0.117188L12.4043 0.175781L12.8145 0.263672L13.1953 0.361328L13.6152 0.488281L14.0059 0.625L14.3965 0.78125L14.7871 0.957031L15.1973 1.16211L15.5781 1.37695L15.8027 1.51367L15.9395 1.60156L16.0859 1.69922L16.2422 1.80664L16.418 1.93359L16.584 2.06055L16.7207 2.16797L16.8672 2.28516L16.8574 2.32422L16.7305 2.43164L16.623 2.51953L16.457 2.65625L16.3496 2.74414L16.1836 2.88086L16.0469 2.98828L15.9102 3.10547L15.7539 3.23242L15.6172 3.33984L15.4805 3.45703L15.3242 3.58398L15.1094 3.75977L14.9434 3.89648L14.8066 4.00391L14.6797 4.11133L14.25 4.46289L14.084 4.59961L13.9473 4.70703L13.8105 4.82422L13.6738 4.93164L13.6348 4.95117L13.3809 4.80469L13.166 4.6875L12.8926 4.56055L12.707 4.48242L12.4434 4.38477L12.1699 4.29688L11.877 4.21875L11.4961 4.14062L11.1152 4.0918L10.7148 4.0625H10.2559L9.86523 4.0918L9.5625 4.13086L9.20117 4.19922L8.88867 4.27734L8.51758 4.39453L8.14648 4.54102L7.89258 4.6582L7.60938 4.80469L7.3457 4.96094L7.16992 5.07812L7.00391 5.19531L6.79883 5.35156L6.67188 5.45898L6.56445 5.54688L6.41797 5.68359L6.34961 5.75195H6.33008V5.77148L6.28125 5.82031L6.25195 5.83008L6.23242 5.86914L6.125 5.97656L6.11523 5.99609H6.0957L6.07617 6.03516L5.96875 6.15234L5.88086 6.25977L5.7832 6.38672L5.64648 6.57227L5.4707 6.83594L5.35352 7.03125L5.23633 7.24609L5.14844 7.41211L5.02148 7.69531L4.89453 8.02734L4.79688 8.33008L4.71875 8.62305L4.64062 9.01367L4.60156 9.27734L4.57227 9.59961L4.5625 9.79492V10.1953L4.58203 10.5078L4.62109 10.8496L4.66992 11.1426L4.73828 11.4453L4.80664 11.6992L4.92383 12.0508L5.03125 12.3242L5.14844 12.5781L5.27539 12.832L5.41211 13.0664L5.53906 13.2715L5.60742 13.3691L5.70508 13.5059L5.82227 13.6621L5.91016 13.7695L6.02734 13.9062L6.13477 14.0234L6.22266 14.1211L6.4375 14.3359L6.51562 14.4043L6.61328 14.4922L6.7207 14.5801L6.87695 14.707L7.0625 14.8438L7.32617 15.0195L7.52148 15.1367L7.69727 15.2344L7.92188 15.3516L8.20508 15.4785L8.53711 15.6055L8.83984 15.7031L9.23047 15.8008L9.60156 15.8691L10.0312 15.918L10.4023 15.9375H10.5977L10.9688 15.918L11.2617 15.8887L11.5742 15.8398L11.8965 15.7715L12.1504 15.7031L12.4629 15.6055L12.8145 15.4688L13.0977 15.3418L13.2832 15.2441L13.498 15.127L13.7031 15L13.8496 14.9023L14.0156 14.7852L14.1816 14.6582L14.3477 14.5215L14.4453 14.4336L14.5234 14.3652L14.6699 14.2285L14.8066 14.0918L14.875 14.0137L15.002 13.877L15.0898 13.7695L15.2168 13.6133L15.4121 13.3398L15.5391 13.1445L15.627 12.998L15.7832 12.7148L15.9199 12.4316L16.0566 12.0996L14.9336 12.0898H10.7637L10.7148 12.0801V8.14453L10.7246 8.13477H20.3145L20.334 8.16406L20.4121 8.66211L20.4707 9.19922L20.5 9.53125V10.4395L20.4414 11.1035L20.3828 11.543L20.3242 11.8945L20.2461 12.2559L20.1582 12.6074L20.041 13.0078L19.8848 13.4668L19.7383 13.8379L19.6113 14.1309L19.4746 14.4141L19.3965 14.5703L19.25 14.8535L18.9668 15.332L18.8301 15.5371L18.6836 15.752L18.5469 15.9375L18.4688 16.0449L18.2539 16.3184L18.1367 16.4551L18.0293 16.582L17.9316 16.6895L17.8633 16.7676L17.7852 16.8457L17.7168 16.9238L17.3457 17.2949L17.2676 17.3633L17.1211 17.5L17.0137 17.5879L16.8672 17.7148L16.7598 17.8027L16.623 17.9102L16.418 18.0664L16.2324 18.1934L16.0957 18.291L15.9004 18.418L15.666 18.5645L15.4316 18.7012L15.1973 18.8281L14.9727 18.9453L14.7578 19.0527L14.4746 19.1797L14.1914 19.2969L13.9082 19.4043L13.5371 19.5312L13.1367 19.6484L12.707 19.7559L12.2676 19.8438L11.8184 19.9121L11.3105 19.9707L10.959 20H10.0312L9.70898 19.9707L9.16211 19.9121L8.78125 19.8535L8.41992 19.7852L8 19.6875L7.64844 19.5898L7.27734 19.4727L6.92578 19.3457L6.54492 19.1895L6.19336 19.0332L6.03711 18.9551L5.75391 18.8086L5.5293 18.6816L5.24609 18.5156L5.08008 18.4082L4.875 18.2715L4.71875 18.1641L4.5332 18.0273L4.41602 17.9395L4.2793 17.832L4.17188 17.7441L3.91797 17.5293L3.80078 17.4219L3.72266 17.3535L3.55664 17.1973L3.20508 16.8457L3.13672 16.7676L2.99023 16.6113L2.90234 16.5039L2.81445 16.4062L2.70703 16.2695L2.58008 16.1133L2.49219 15.9961L2.35547 15.8105L2.21875 15.6152L2.0332 15.332L1.86719 15.0586L1.74023 14.834L1.62305 14.6191L1.4375 14.248L1.31055 13.9648L1.16406 13.6035L1.03711 13.2617L0.929688 12.9297L0.832031 12.5879L0.724609 12.1484L0.646484 11.748L0.578125 11.2988L0.529297 10.8594L0.5 10.5273V9.44336L0.568359 8.7793L0.636719 8.30078L0.734375 7.8125L0.822266 7.45117L0.910156 7.13867L1.02734 6.76758L1.1543 6.41602L1.28125 6.10352L1.4082 5.82031L1.51562 5.58594L1.61328 5.40039L1.76953 5.10742L1.90625 4.87305L2.0625 4.61914L2.16016 4.47266L2.32617 4.22852L2.46289 4.04297L2.55078 3.92578L2.61914 3.83789L2.72656 3.70117L2.84375 3.56445L2.95117 3.42773L3.03906 3.33984L3.10742 3.26172L3.21484 3.14453L3.27344 3.07617H3.29297L3.3125 3.03711L3.58594 2.76367H3.60547V2.74414L3.68359 2.67578L3.83008 2.53906L3.9082 2.4707L4.04492 2.35352L4.15234 2.26562L4.31836 2.12891L4.51367 1.98242L4.69922 1.8457L4.92383 1.68945L5.16797 1.5332L5.37305 1.40625L5.60742 1.26953L5.86133 1.13281L6.04688 1.03516L6.34961 0.888672L6.62305 0.771484L6.94531 0.644531L7.13086 0.576172L7.47266 0.458984L7.80469 0.361328L8.13672 0.273438L8.49805 0.195312L8.86914 0.126953L9.35742 0.0585938L9.83594 0.00976562L9.97266 0Z" fill="#518FFA"/>
<path d="M9.97266 0H11.0371L11.6133 0.0585938L12.0625 0.117188L12.4043 0.175781L12.8145 0.263672L13.1953 0.361328L13.6152 0.488281L14.0059 0.625L14.3965 0.78125L14.7871 0.957031L15.1973 1.16211L15.5781 1.37695L15.8027 1.51367L15.9395 1.60156L16.0859 1.69922L16.2422 1.80664L16.418 1.93359L16.584 2.06055L16.7207 2.16797L16.8672 2.28516L16.8574 2.32422L16.7305 2.43164L16.623 2.51953L16.457 2.65625L16.3496 2.74414L16.1836 2.88086L16.0469 2.98828L15.9102 3.10547L15.7539 3.23242L15.6172 3.33984L15.4805 3.45703L15.3242 3.58398L15.1094 3.75977L14.9434 3.89648L14.8066 4.00391L14.6797 4.11133L14.25 4.46289L14.084 4.59961L13.9473 4.70703L13.8105 4.82422L13.6738 4.93164L13.6348 4.95117L13.3809 4.80469L13.166 4.6875L12.8926 4.56055L12.707 4.48242L12.4434 4.38477L12.1699 4.29688L11.877 4.21875L11.4961 4.14062L11.1152 4.0918L10.7148 4.0625H10.2559L9.86523 4.0918L9.5625 4.13086L9.20117 4.19922L8.88867 4.27734L8.51758 4.39453L8.14648 4.54102L7.89258 4.6582L7.60938 4.80469L7.3457 4.96094L7.16992 5.07812L7.00391 5.19531L6.79883 5.35156L6.67188 5.45898L6.56445 5.54688L6.41797 5.68359L6.34961 5.75195H6.33008V5.77148L6.28125 5.82031L6.25195 5.83008L6.23242 5.86914L6.125 5.97656L6.11523 5.99609H6.0957L6.07617 6.03516L5.96875 6.15234L5.88086 6.25977L5.7832 6.38672L5.64648 6.57227L5.4707 6.83594L5.35352 7.03125L5.23633 7.24609L5.14844 7.41211L5.02148 7.69531L4.89453 8.02734L4.79688 8.33008L4.71875 8.62305L4.64062 9.01367L4.60156 9.27734L4.57227 9.59961L4.5625 9.79492V10.1953L4.58203 10.5078L4.62109 10.8496L4.66992 11.1426L4.73828 11.4453L4.80664 11.6992L4.94336 12.1094L4.86523 12.1484L4.75781 12.2363L4.66992 12.3145L4.5625 12.4023L4.44531 12.5L4.34766 12.5781L4.19141 12.7051L4.06445 12.8125L3.97656 12.8809L3.84961 12.9883L3.76172 13.0566L3.63477 13.1641L3.49805 13.2715L3.38086 13.3691L3.27344 13.457L3.14648 13.5645L3.05859 13.6328L2.93164 13.7402L2.79492 13.8477L2.67773 13.9453L2.57031 14.0332L2.47266 14.1113L2.33594 14.2285L2.20898 14.3262L2.05273 14.4531L1.94531 14.541L1.82812 14.6387L1.74023 14.707L1.71094 14.7266L1.67188 14.7168L1.4375 14.248L1.31055 13.9648L1.16406 13.6035L1.03711 13.2617L0.929688 12.9297L0.832031 12.5879L0.724609 12.1484L0.646484 11.748L0.578125 11.2988L0.529297 10.8594L0.5 10.5273V9.44336L0.568359 8.7793L0.636719 8.30078L0.734375 7.8125L0.822266 7.45117L0.910156 7.13867L1.02734 6.76758L1.1543 6.41602L1.28125 6.10352L1.4082 5.82031L1.51562 5.58594L1.61328 5.40039L1.76953 5.10742L1.90625 4.87305L2.0625 4.61914L2.16016 4.47266L2.32617 4.22852L2.46289 4.04297L2.55078 3.92578L2.61914 3.83789L2.72656 3.70117L2.84375 3.56445L2.95117 3.42773L3.03906 3.33984L3.10742 3.26172L3.21484 3.14453L3.27344 3.07617H3.29297L3.3125 3.03711L3.58594 2.76367H3.60547V2.74414L3.68359 2.67578L3.83008 2.53906L3.9082 2.4707L4.04492 2.35352L4.15234 2.26562L4.31836 2.12891L4.51367 1.98242L4.69922 1.8457L4.92383 1.68945L5.16797 1.5332L5.37305 1.40625L5.60742 1.26953L5.86133 1.13281L6.04688 1.03516L6.34961 0.888672L6.62305 0.771484L6.94531 0.644531L7.13086 0.576172L7.47266 0.458984L7.80469 0.361328L8.13672 0.273438L8.49805 0.195312L8.86914 0.126953L9.35742 0.0585938L9.83594 0.00976562L9.97266 0Z" fill="#F14636"/>
<path d="M4.91406 12.1094H4.94336L5.07031 12.4121L5.20703 12.6953L5.32422 12.9199L5.4707 13.1641L5.58789 13.3398L5.70508 13.5059L5.82227 13.6621L5.91016 13.7695L6.02734 13.9062L6.13477 14.0234L6.22266 14.1211L6.4375 14.3359L6.51562 14.4043L6.61328 14.4922L6.7207 14.5801L6.87695 14.707L7.0625 14.8438L7.32617 15.0195L7.52148 15.1367L7.69727 15.2344L7.92188 15.3516L8.20508 15.4785L8.53711 15.6055L8.83984 15.7031L9.23047 15.8008L9.60156 15.8691L10.0312 15.918L10.4023 15.9375H10.5977L10.9688 15.918L11.2617 15.8887L11.5742 15.8398L11.8965 15.7715L12.1504 15.7031L12.4629 15.6055L12.8145 15.4688L13.0977 15.3418L13.2832 15.2441L13.498 15.127L13.5762 15.1855L13.7129 15.293L13.8398 15.4004L14.1523 15.6543L14.2793 15.7617L14.377 15.8398L14.5332 15.9668L14.6406 16.0547L14.8066 16.1914L14.9629 16.3184L15.0703 16.4062L15.1875 16.5039L15.2949 16.5918L15.4316 16.6992L15.5293 16.7871L15.6562 16.8848L15.8223 17.0215L15.9297 17.1094L16.0957 17.2461L16.252 17.373L16.3594 17.4609L16.5254 17.5977L16.6328 17.6855L16.7012 17.7441L16.7598 17.7832L16.75 17.8125L16.623 17.9102L16.418 18.0664L16.2324 18.1934L16.0957 18.291L15.9004 18.418L15.666 18.5645L15.4316 18.7012L15.1973 18.8281L14.9727 18.9453L14.7578 19.0527L14.4746 19.1797L14.1914 19.2969L13.9082 19.4043L13.5371 19.5312L13.1367 19.6484L12.707 19.7559L12.2676 19.8438L11.8184 19.9121L11.3105 19.9707L10.959 20H10.0312L9.70898 19.9707L9.16211 19.9121L8.78125 19.8535L8.41992 19.7852L8 19.6875L7.64844 19.5898L7.27734 19.4727L6.92578 19.3457L6.54492 19.1895L6.19336 19.0332L6.03711 18.9551L5.75391 18.8086L5.5293 18.6816L5.24609 18.5156L5.08008 18.4082L4.875 18.2715L4.71875 18.1641L4.5332 18.0273L4.41602 17.9395L4.2793 17.832L4.17188 17.7441L3.91797 17.5293L3.80078 17.4219L3.72266 17.3535L3.55664 17.1973L3.20508 16.8457L3.13672 16.7676L2.99023 16.6113L2.90234 16.5039L2.81445 16.4062L2.70703 16.2695L2.58008 16.1133L2.49219 15.9961L2.35547 15.8105L2.21875 15.6152L2.0332 15.332L1.86719 15.0586L1.74023 14.834L1.69141 14.7461V14.7266L1.75 14.6875L1.88672 14.5801L2.02344 14.4629L2.16016 14.3555L2.31641 14.2285L2.45312 14.1211L2.54102 14.043L2.64844 13.9551L2.78516 13.8477L2.91211 13.7402L3.01953 13.6523L3.17578 13.5254L3.27344 13.4473L3.40039 13.3398L3.50781 13.252L3.64453 13.1445L3.78125 13.0273L3.87891 12.9492L4.00586 12.8418L4.09375 12.7734L4.2207 12.666L4.35742 12.5586L4.51367 12.4316L4.65039 12.3145L4.74805 12.2363L4.83594 12.1582L4.91406 12.1094Z" fill="#2EB34F"/>
<path d="M1.61328 5.40039L1.64258 5.41016L1.69141 5.45898L1.82812 5.56641L1.91602 5.63477V5.6543L1.95508 5.67383L2.01367 5.71289V5.73242L2.05273 5.75195L2.16016 5.83984L2.29688 5.94727L2.42383 6.05469L2.49219 6.10352V6.12305L2.53125 6.14258L2.69727 6.2793L2.72656 6.29883V6.31836L2.76562 6.33789L2.92188 6.45508V6.47461L2.96094 6.49414L3.12695 6.63086L3.23438 6.71875L3.30273 6.76758V6.78711L3.3418 6.80664L3.44922 6.89453L3.58594 7.00195V7.02148L3.625 7.04102L3.78125 7.1582V7.17773L3.82031 7.19727L3.98633 7.33398L4.10352 7.42188V7.44141L4.14258 7.46094L4.21094 7.50977V7.5293L4.25 7.54883L4.41602 7.68555L4.52344 7.77344L4.65039 7.88086L4.75781 7.96875L4.85547 8.03711L4.88477 8.05664L4.79688 8.33008L4.71875 8.62305L4.64062 9.01367L4.60156 9.27734L4.57227 9.59961L4.5625 9.79492V10.1953L4.58203 10.5078L4.62109 10.8496L4.66992 11.1426L4.73828 11.4453L4.80664 11.6992L4.94336 12.1094L4.86523 12.1484L4.75781 12.2363L4.66992 12.3145L4.5625 12.4023L4.44531 12.5L4.34766 12.5781L4.19141 12.7051L4.06445 12.8125L3.97656 12.8809L3.84961 12.9883L3.76172 13.0566L3.63477 13.1641L3.49805 13.2715L3.38086 13.3691L3.27344 13.457L3.14648 13.5645L3.05859 13.6328L2.93164 13.7402L2.79492 13.8477L2.67773 13.9453L2.57031 14.0332L2.47266 14.1113L2.33594 14.2285L2.20898 14.3262L2.05273 14.4531L1.94531 14.541L1.82812 14.6387L1.74023 14.707L1.71094 14.7266L1.67188 14.7168L1.4375 14.248L1.31055 13.9648L1.16406 13.6035L1.03711 13.2617L0.929688 12.9297L0.832031 12.5879L0.724609 12.1484L0.646484 11.748L0.578125 11.2988L0.529297 10.8594L0.5 10.5273V9.44336L0.568359 8.7793L0.636719 8.30078L0.734375 7.8125L0.822266 7.45117L0.910156 7.13867L1.02734 6.76758L1.1543 6.41602L1.28125 6.10352L1.4082 5.82031L1.51562 5.58594L1.61328 5.40039Z" fill="#FEB907"/>
</g>
<defs>
<clipPath id="clip0_1313_4">
<rect width="20" height="20" fill="white"/>
</clipPath>
</defs>
</svg>
