<svg width="984" height="734" viewBox="0 0 984 734" fill="none" xmlns="http://www.w3.org/2000/svg">
<path d="M983.966 644.301H0V644.793H983.966V644.301Z" fill="#E6E6E6"/>
<path d="M245.637 674.076H180.459V674.568H245.637V674.076Z" fill="#E6E6E6"/>
<path d="M159.835 674.076H122.071V674.568H159.835V674.076Z" fill="#E6E6E6"/>
<path d="M414.348 681.318H376.583V681.81H414.348V681.318Z" fill="#E6E6E6"/>
<path d="M611.259 692.299H526.264V692.791H611.259V692.299Z" fill="#E6E6E6"/>
<path d="M508.749 692.299H496.292V692.791H508.749V692.299Z" fill="#E6E6E6"/>
<path d="M892.162 681.318H707.806V681.81H892.162V681.318Z" fill="#E6E6E6"/>
<path d="M466.4 556.531H86.412C83.4352 556.526 80.5821 555.34 78.4791 553.233C76.376 551.126 75.1948 548.271 75.1948 545.294V11.1385C75.2207 8.17877 76.4134 5.3488 78.5136 3.26326C80.6139 1.17772 83.4522 0.00507015 86.412 0H466.4C469.38 0 472.238 1.18388 474.346 3.29121C476.453 5.39853 477.637 8.25668 477.637 11.2369V545.294C477.637 548.274 476.453 551.133 474.346 553.24C472.238 555.347 469.38 556.531 466.4 556.531ZM86.412 0.393588C83.5657 0.398801 80.8378 1.53315 78.827 3.54764C76.8162 5.56214 75.6868 8.29217 75.6868 11.1385V545.294C75.6868 548.14 76.8162 550.87 78.827 552.885C80.8378 554.899 83.5657 556.034 86.412 556.039H466.4C469.248 556.034 471.978 554.9 473.992 552.886C476.006 550.872 477.14 548.142 477.145 545.294V11.1385C477.14 8.29036 476.006 5.56038 473.992 3.54644C471.978 1.53251 469.248 0.39879 466.4 0.393588H86.412Z" fill="#E6E6E6"/>
<path d="M892.083 556.531H512.075C509.097 556.526 506.242 555.34 504.135 553.234C502.029 551.128 500.844 548.273 500.838 545.294V11.1385C500.869 8.17698 502.066 5.34702 504.17 3.26203C506.273 1.17704 509.114 0.00501486 512.075 0H892.083C895.039 0.0102421 897.873 1.18519 899.969 3.27017C902.065 5.35515 903.255 8.18217 903.28 11.1385V545.294C903.28 548.268 902.102 551.12 900.003 553.226C897.904 555.332 895.056 556.521 892.083 556.531ZM512.075 0.393588C509.227 0.39879 506.497 1.53251 504.483 3.54644C502.469 5.56038 501.336 8.29036 501.33 11.1385V545.294C501.336 548.142 502.469 550.872 504.483 552.886C506.497 554.9 509.227 556.034 512.075 556.039H892.083C894.931 556.034 897.661 554.9 899.675 552.886C901.689 550.872 902.823 548.142 902.828 545.294V11.1385C902.823 8.29036 901.689 5.56038 899.675 3.54644C897.661 1.53251 894.931 0.39879 892.083 0.393588H512.075Z" fill="#E6E6E6"/>
<path d="M519.081 483.934V525.556H336.516V483.934H519.022M519.79 483.167H335.808V526.304H519.849V483.167H519.79Z" fill="#E0E0E0"/>
<path d="M423.479 504.735C423.479 505.595 423.734 506.436 424.212 507.151C424.69 507.867 425.369 508.424 426.164 508.753C426.958 509.082 427.833 509.168 428.677 509.001C429.52 508.833 430.295 508.419 430.903 507.81C431.512 507.202 431.926 506.427 432.094 505.584C432.262 504.74 432.175 503.866 431.846 503.071C431.517 502.276 430.96 501.597 430.244 501.119C429.529 500.641 428.688 500.386 427.828 500.386C426.675 500.386 425.568 500.844 424.753 501.66C423.937 502.475 423.479 503.582 423.479 504.735Z" fill="#E6E6E6"/>
<path d="M385.065 451.168C385.065 464.943 400.474 476.2 419.307 476.2H436.31C455.143 476.2 470.552 464.943 470.552 451.168H385.065Z" fill="#E0E0E0"/>
<path d="M687.3 213.383L667.778 205.511C667.778 205.511 642.018 252.486 634.638 254.867C624.602 258.094 603.82 267.068 591.501 268.642C589.828 270.61 587.093 276.73 587.349 278.954C603.899 284.484 640.266 277.144 648.059 271.358C665.791 258.232 687.3 213.383 687.3 213.383Z" fill="#FEBCB4"/>
<path d="M693.302 202.697C696.943 216.138 677.224 243.177 677.224 243.177L651.385 228.693C651.385 228.693 656.226 217.574 662.13 206.259C671.596 187.977 689.15 187.367 693.302 202.697Z" fill="#407BFF"/>
<path opacity="0.2" d="M693.302 202.697C696.943 216.138 677.224 243.177 677.224 243.177L651.385 228.693C651.385 228.693 656.226 217.574 662.13 206.259C671.596 187.977 689.15 187.367 693.302 202.697Z" fill="black"/>
<path opacity="0.2" d="M661.638 234.479L671.812 240.186L673.603 208.955C667.68 213.501 663.508 227.198 661.638 234.479Z" fill="black"/>
<path d="M676.3 192.582C676.3 192.582 656.187 237.333 667.916 320.655H747.165C748.424 308.493 744.252 249.14 759.346 191.834C750.653 190.135 741.857 189.011 733.015 188.469C721.801 187.819 710.558 187.819 699.344 188.469C691.57 189.258 683.867 190.633 676.3 192.582Z" fill="#407BFF"/>
<path opacity="0.2" d="M676.3 192.582C676.3 192.582 656.187 237.333 667.916 320.655H747.165C748.424 308.493 744.252 249.14 759.346 191.834C750.653 190.135 741.857 189.011 733.015 188.469C721.801 187.819 710.558 187.819 699.344 188.469C691.57 189.258 683.867 190.633 676.3 192.582Z" fill="black"/>
<g style="mix-blend-mode:multiply">
<path d="M657.919 712.667C657.801 714.792 687.851 716.504 725.025 716.504C762.2 716.504 792.466 714.792 792.584 712.667C792.702 710.541 762.672 708.849 725.478 708.849C688.284 708.849 658.057 710.561 657.919 712.667Z" fill="#E8ECF1"/>
</g>
<path d="M710.818 656.822L696.762 662.263L708.87 693.541L722.925 688.1L710.818 656.822Z" fill="#FEBCB4"/>
<path d="M773.496 697.533H758.677L753.246 663.232H768.064L773.496 697.533Z" fill="#FEBCB4"/>
<path d="M757.654 695.821H774.302C774.591 695.822 774.87 695.925 775.09 696.113C775.31 696.3 775.456 696.559 775.503 696.845L777.648 710.01C777.693 710.34 777.667 710.676 777.57 710.996C777.474 711.315 777.31 711.609 777.09 711.86C776.87 712.11 776.598 712.31 776.293 712.445C775.989 712.581 775.659 712.65 775.326 712.647C769.52 712.549 766.726 712.194 759.405 712.194C754.899 712.194 745.63 712.667 739.371 712.667C733.113 712.667 732.7 706.527 735.278 705.956C746.85 703.457 751.337 700.052 755.194 696.746C755.874 696.149 756.748 695.82 757.654 695.821Z" fill="#263238"/>
<path d="M708.455 690.744L724.199 686.139C724.48 686.06 724.779 686.079 725.048 686.194C725.316 686.308 725.537 686.511 725.675 686.769L731.578 698.576C731.716 698.876 731.786 699.202 731.784 699.531C731.782 699.861 731.708 700.186 731.567 700.484C731.427 700.782 731.223 701.045 730.97 701.256C730.717 701.467 730.421 701.621 730.102 701.705C724.376 703.28 720.538 704.244 713.375 706.33C708.436 707.767 703.398 710.108 698.517 711.663C695.132 712.745 687.182 712.785 683.069 712.785C676.988 712.785 675.63 706.369 678.247 706.074C684.84 705.346 685.726 705.681 689.366 703.85C695.323 701.247 700.722 697.518 705.267 692.869C706.124 691.893 707.224 691.159 708.455 690.744Z" fill="#263238"/>
<path d="M593.981 268.564L577.686 261.735L570.976 279.8C577.654 280.818 584.448 280.818 591.127 279.8L593.981 268.564Z" fill="#FEBCB4"/>
<path d="M565.564 261.262L565.131 273.267L570.976 279.761L577.686 261.695L565.564 261.262Z" fill="#FEBCB4"/>
<path d="M712.746 659.478L698.646 664.922L704.891 681.096L718.99 675.652L712.746 659.478Z" fill="#F2A19C"/>
<path d="M768.064 663.232H753.246L756.06 680.924H770.878L768.064 663.232Z" fill="#F2A19C"/>
<path opacity="0.2" d="M665.397 298.122C665.692 301.684 666.027 305.324 666.46 309.064L725.38 289.935C734.581 287.208 742.577 281.426 748.05 273.542C748.286 268.288 748.581 262.758 749.034 256.992C749.231 254.198 749.467 251.324 749.723 248.412C749.979 245.499 750.333 242.272 750.707 239.163L665.397 298.122Z" fill="black"/>
<path d="M684.643 233.574L682.675 233.338C683.836 223.498 691.177 215.744 698.911 215.941V217.909C692.141 217.771 685.686 224.758 684.643 233.574Z" fill="white"/>
<path d="M695.132 251.738H694.798V249.77C701.568 250.026 707.924 242.961 708.967 234.164L710.935 234.4C709.892 244.023 702.788 251.738 695.132 251.738Z" fill="white"/>
<path d="M731.913 150.547C729.138 161.39 725.872 181.246 733.015 188.469C733.015 188.469 728.017 199.469 707.885 199.469C689.485 199.469 699.344 188.469 699.344 188.469C711.584 185.595 711.801 176.661 710.187 168.199L731.913 150.547Z" fill="#FEBCB4"/>
<path d="M723.057 157.749L710.207 168.199C710.605 170.144 710.835 172.119 710.895 174.103C714.654 177.842 722.191 168.376 722.959 163.535C723.349 161.629 723.382 159.667 723.057 157.749Z" fill="#F2A19C"/>
<path d="M688.107 150.409C689.001 151.959 690.205 153.308 691.644 154.371C693.084 155.434 694.727 156.189 696.471 156.588C701.194 157.631 703.555 153.282 702.256 148.913C701.095 144.978 697.218 139.684 692.417 140.589C691.388 140.801 690.425 141.256 689.609 141.917C688.792 142.577 688.146 143.424 687.724 144.385C687.302 145.347 687.117 146.396 687.183 147.444C687.25 148.492 687.567 149.509 688.107 150.409Z" fill="#F2A19C"/>
<path d="M695.919 115.714C688.559 119.08 685.962 148.323 695.211 152.653C704.46 156.982 709.852 109.319 695.919 115.714Z" fill="#263238"/>
<path d="M734.156 134.233C732.385 148.913 732.189 157.553 724.317 165.07C721.878 167.565 718.796 169.337 715.413 170.191C712.03 171.044 708.477 170.947 705.147 169.908C701.816 168.87 698.836 166.931 696.538 164.306C694.239 161.682 692.711 158.472 692.121 155.034C689.74 141.849 693.027 120.064 707.747 114.219C710.84 112.855 714.241 112.342 717.598 112.735C720.956 113.129 724.147 114.412 726.841 116.454C729.535 118.496 731.634 121.221 732.92 124.347C734.207 127.473 734.633 130.886 734.156 134.233Z" fill="#FEBCB4"/>
<path d="M709.971 123.311C720.873 120.536 728.882 118.647 726.009 127.719C722.211 139.841 717.646 151.57 723.766 152.101C727.505 152.436 744.036 145.43 741.93 138.326C740.1 132.147 747.834 130.454 749.211 127.325C754.308 115.99 739.726 117.485 742.323 110.598C744.921 103.71 730.516 92.6108 722.644 98.1407C709.833 107.075 687.851 106.937 699.403 92.2369C707.688 81.7479 692.909 83.8929 692.909 83.8929C692.909 83.8929 701.843 89.1866 686.808 97.3732C670.907 106.111 685.49 129.588 709.971 123.311Z" fill="#263238"/>
<path d="M739.942 150.409C737.79 153.523 734.556 155.726 730.87 156.588C726.009 157.631 724.14 153.282 725.97 148.913C727.603 144.978 732.09 139.684 736.735 140.589C741.379 141.494 742.442 146.552 739.942 150.409Z" fill="#FEBCB4"/>
<path d="M667.916 320.655C667.916 320.655 654.613 439.715 653.57 484.898C652.507 531.893 698.655 678.523 698.655 678.523L722.27 668.683C722.27 668.683 694.719 534.707 698.655 488.559C702.827 438.239 720.066 320.733 720.066 320.733L667.916 320.655Z" fill="#407BFF"/>
<path opacity="0.2" d="M700.977 353.342C690.37 375.344 697.514 418.854 703.26 444.634C705.444 426.431 708.042 406.673 710.502 388.391C710.266 360.289 708.081 338.583 700.977 353.342Z" fill="black"/>
<path d="M721.227 660.89C721.345 660.89 724.022 668.408 724.022 668.408L696.786 679.861L692.496 671.871L721.227 660.89Z" fill="#407BFF"/>
<path d="M696.038 320.655C696.038 320.655 706.212 433.89 712.942 476.298C720.342 522.761 749.349 677.5 749.349 677.5H776.487C776.487 677.5 760.232 526.52 757.162 480.51C753.816 430.603 747.164 320.655 747.164 320.655H696.038Z" fill="#407BFF"/>
<path d="M776.9 670.435C777.018 670.435 777.805 678.011 777.805 678.011H747.972L745.846 669.313L776.9 670.435Z" fill="#407BFF"/>
<path opacity="0.2" d="M766.509 661.461C766.448 661.462 766.388 661.44 766.341 661.401C766.294 661.361 766.263 661.305 766.254 661.245C766.096 659.867 751.435 523.489 748.68 482.163C745.689 437.333 739.667 337.894 739.608 336.89C739.605 336.857 739.609 336.825 739.62 336.794C739.63 336.763 739.647 336.734 739.67 336.71C739.692 336.686 739.719 336.667 739.749 336.654C739.779 336.641 739.811 336.634 739.844 336.634C739.909 336.634 739.971 336.658 740.018 336.702C740.066 336.746 740.095 336.806 740.1 336.87C740.1 337.874 746.181 437.235 749.172 482.143C751.927 523.47 766.588 659.749 766.726 661.225C766.731 661.257 766.73 661.291 766.722 661.323C766.714 661.355 766.699 661.385 766.679 661.411C766.658 661.437 766.633 661.458 766.604 661.474C766.574 661.489 766.542 661.498 766.509 661.5V661.461Z" fill="black"/>
<path d="M711.643 138.326C711.643 139.526 710.895 140.491 710.108 140.491C709.321 140.491 708.75 139.526 708.829 138.326C708.908 137.125 709.577 136.161 710.364 136.161C711.151 136.161 711.722 137.145 711.643 138.326Z" fill="#263238"/>
<path d="M698.144 138.326C698.144 139.526 697.376 140.491 696.609 140.491C695.841 140.491 695.251 139.526 695.31 138.326C695.369 137.125 696.077 136.161 696.864 136.161C697.652 136.161 698.222 137.145 698.144 138.326Z" fill="#263238"/>
<path d="M702.394 138.936C700.751 142.602 698.634 146.036 696.097 149.15C698.065 151.118 701.745 150.212 701.745 150.212L702.394 138.936Z" fill="#F2A19C"/>
<path d="M702.748 155.23C702.703 155.231 702.657 155.221 702.616 155.203C702.574 155.185 702.536 155.159 702.504 155.126C702.473 155.092 702.449 155.053 702.433 155.01C702.418 154.967 702.411 154.922 702.414 154.876C702.419 154.781 702.46 154.69 702.53 154.624C702.6 154.559 702.692 154.522 702.788 154.522C704.293 154.532 705.781 154.206 707.143 153.565C708.505 152.925 709.707 151.988 710.659 150.822C710.727 150.763 710.815 150.73 710.905 150.73C710.996 150.73 711.083 150.763 711.151 150.822C711.215 150.888 711.251 150.977 711.251 151.068C711.251 151.16 711.215 151.248 711.151 151.314C710.132 152.553 708.848 153.548 707.394 154.225C705.94 154.903 704.352 155.246 702.748 155.23Z" fill="#263238"/>
<path d="M714.044 134.705C713.95 134.753 713.845 134.779 713.739 134.779C713.633 134.779 713.529 134.753 713.434 134.705C712.698 134.229 711.86 133.933 710.988 133.841C710.117 133.748 709.236 133.862 708.416 134.174C708.336 134.214 708.249 134.237 708.16 134.243C708.071 134.249 707.981 134.236 707.897 134.207C707.813 134.178 707.735 134.132 707.669 134.072C707.602 134.012 707.549 133.94 707.511 133.859C707.438 133.684 707.436 133.487 707.506 133.31C707.576 133.134 707.711 132.992 707.885 132.914C708.913 132.494 710.029 132.328 711.135 132.431C712.242 132.534 713.307 132.902 714.241 133.505C714.316 133.556 714.381 133.622 714.431 133.698C714.481 133.774 714.515 133.86 714.531 133.95C714.548 134.039 714.546 134.131 714.527 134.221C714.507 134.31 714.47 134.394 714.418 134.469C714.319 134.582 714.189 134.664 714.044 134.705Z" fill="#263238"/>
<path d="M692.928 130.769C692.824 130.744 692.728 130.689 692.653 130.612C692.588 130.548 692.536 130.471 692.5 130.386C692.465 130.302 692.446 130.211 692.446 130.12C692.446 130.028 692.465 129.937 692.5 129.853C692.536 129.768 692.588 129.692 692.653 129.628C693.407 128.782 694.347 128.121 695.398 127.698C696.449 127.275 697.584 127.1 698.714 127.187C698.805 127.201 698.891 127.234 698.969 127.283C699.046 127.331 699.113 127.396 699.165 127.471C699.216 127.547 699.252 127.632 699.269 127.722C699.287 127.812 699.285 127.905 699.265 127.994C699.223 128.177 699.116 128.337 698.964 128.446C698.811 128.554 698.625 128.604 698.439 128.585C697.545 128.528 696.649 128.676 695.821 129.017C694.992 129.358 694.252 129.883 693.657 130.553C693.567 130.652 693.452 130.725 693.323 130.763C693.195 130.802 693.058 130.804 692.928 130.769Z" fill="#263238"/>
<path d="M766.962 211.198L746.496 205.747C746.496 205.747 726.423 255.162 719.318 258.37C709.676 262.778 685.253 278.049 674.863 285.271C674.292 287.731 674.745 294.245 676.044 296.036C693.755 292.809 727.662 279.761 734.747 273.129C750.904 257.996 766.962 211.198 766.962 211.198Z" fill="#FEBCB4"/>
<path d="M752.675 698.419C751.676 698.498 750.681 698.227 749.86 697.651C749.607 697.423 749.417 697.132 749.31 696.807C749.203 696.483 749.183 696.136 749.25 695.802C749.263 695.592 749.331 695.391 749.449 695.217C749.567 695.044 749.73 694.906 749.919 694.818C751.572 693.971 756.197 696.904 756.728 697.238C756.787 697.274 756.832 697.328 756.857 697.392C756.882 697.456 756.885 697.526 756.866 697.592C756.849 697.661 756.815 697.724 756.767 697.776C756.719 697.828 756.658 697.866 756.591 697.888C755.308 698.203 753.995 698.381 752.675 698.419ZM750.707 695.349C750.558 695.316 750.403 695.316 750.254 695.349C750.179 695.387 750.116 695.447 750.074 695.52C750.032 695.594 750.012 695.678 750.018 695.762C749.965 695.991 749.974 696.23 750.043 696.454C750.112 696.679 750.239 696.881 750.411 697.041C751.179 697.73 753.107 697.809 755.646 697.317C754.134 696.321 752.432 695.651 750.648 695.349H750.707Z" fill="#407BFF"/>
<path d="M756.492 697.888C756.441 697.904 756.386 697.904 756.335 697.888C754.859 697.061 752.084 693.814 752.498 692.161C752.559 691.899 752.707 691.665 752.918 691.497C753.129 691.33 753.389 691.238 753.659 691.236C753.923 691.201 754.191 691.223 754.446 691.301C754.701 691.379 754.936 691.511 755.135 691.689C756.768 693.086 756.866 697.376 756.866 697.592C756.876 697.657 756.864 697.723 756.832 697.78C756.8 697.837 756.749 697.882 756.689 697.907C756.623 697.921 756.555 697.914 756.492 697.888ZM753.855 691.885H753.718C753.265 691.885 753.206 692.141 753.186 692.24C752.95 693.204 754.702 695.664 756.158 696.825C756.151 695.162 755.636 693.542 754.682 692.181C754.454 691.981 754.158 691.876 753.855 691.885Z" fill="#407BFF"/>
<path d="M700.426 695.959C699.222 696.379 697.911 696.379 696.707 695.959C696.433 695.811 696.201 695.596 696.033 695.335C695.864 695.073 695.764 694.774 695.742 694.463C695.717 694.269 695.742 694.071 695.815 693.889C695.887 693.706 696.004 693.545 696.156 693.42C697.73 692.003 704.165 693.42 704.893 693.696C704.962 693.714 705.024 693.755 705.066 693.812C705.109 693.869 705.132 693.939 705.129 694.011C705.132 694.085 705.113 694.158 705.075 694.221C705.036 694.284 704.98 694.334 704.913 694.365C703.464 695.019 701.963 695.552 700.426 695.959ZM697.218 693.617C696.993 693.662 696.783 693.764 696.608 693.912C696.545 693.959 696.497 694.023 696.469 694.096C696.442 694.169 696.435 694.249 696.451 694.326C696.464 694.532 696.528 694.732 696.638 694.907C696.748 695.083 696.9 695.228 697.08 695.329C698.123 695.88 700.544 695.447 703.673 694.129C701.565 693.597 699.383 693.424 697.218 693.617Z" fill="#407BFF"/>
<path d="M704.854 694.365H704.697C702.729 694.011 698.793 691.748 698.675 690.055C698.675 689.662 698.852 689.111 699.797 688.796C700.116 688.682 700.454 688.634 700.793 688.654C701.131 688.674 701.461 688.763 701.764 688.914C703.89 689.957 705.012 693.735 705.071 693.912C705.084 693.972 705.083 694.034 705.065 694.092C705.048 694.151 705.016 694.204 704.972 694.247C704.943 694.295 704.902 694.336 704.854 694.365ZM700.19 689.386H699.993C699.383 689.603 699.383 689.858 699.383 689.937C699.383 690.96 702.237 692.83 704.224 693.46C703.767 691.879 702.798 690.495 701.469 689.524C701.074 689.323 700.619 689.274 700.19 689.386Z" fill="#407BFF"/>
<path d="M676.536 284.11L656.01 293.556L653.629 299.46L661.205 304.557C661.205 304.557 675.375 303.022 679.409 293.911L676.536 284.11Z" fill="#FEBCB4"/>
<path d="M677.401 296.37C676.943 292.427 675.641 288.628 673.583 285.232L676.831 282.792C679.273 286.705 680.831 291.104 681.396 295.682L677.401 296.37Z" fill="#263238"/>
<path d="M680.904 286.905C681.338 287.587 681.551 288.387 681.515 289.195C681.478 290.003 681.193 290.78 680.7 291.42C680.206 292.06 679.526 292.533 678.754 292.774C677.982 293.015 677.155 293.012 676.384 292.765C675.614 292.519 674.938 292.042 674.449 291.398C673.96 290.754 673.681 289.975 673.65 289.166C673.619 288.358 673.838 287.56 674.277 286.881C674.716 286.202 675.353 285.674 676.102 285.37C676.944 284.941 677.92 284.862 678.819 285.149C679.718 285.437 680.468 286.068 680.904 286.905Z" fill="#263238"/>
<path d="M642.136 301.192L644.871 303.947L663.291 296.075L656.01 293.556L642.136 301.192Z" fill="#FEBCB4"/>
<path opacity="0.2" d="M721.227 660.89C721.345 660.89 724.022 668.408 724.022 668.408L696.786 679.861L692.496 671.871L721.227 660.89Z" fill="black"/>
<path opacity="0.2" d="M776.9 670.435C777.018 670.435 777.805 678.011 777.805 678.011H747.972L745.846 669.313L776.9 670.435Z" fill="black"/>
<path d="M772.295 205.531C777.707 222.986 756.551 246.857 756.551 246.857L727.328 234.932C730.792 224.843 734.785 214.943 739.293 205.275C748.266 185.93 766.824 187.918 772.295 205.531Z" fill="#407BFF"/>
<path opacity="0.2" d="M772.295 205.531C777.707 222.986 756.551 246.857 756.551 246.857L727.328 234.932C730.792 224.843 734.785 214.943 739.293 205.275C748.266 185.93 766.824 187.918 772.295 205.531Z" fill="black"/>
<path d="M481.907 30.6406H469.332V32.6676H481.907V30.6406Z" fill="#407BFF"/>
<path d="M644.691 110.866L643.169 144.641L645.194 144.732L646.716 110.958L644.691 110.866Z" fill="#407BFF"/>
<path d="M640.778 39.7324H408.562L386.955 523.293H619.171L640.778 39.7324Z" fill="#407BFF"/>
<path opacity="0.56" d="M633.851 46.384H401.635L380.027 529.944H612.243L633.851 46.384Z" fill="#FAFAFA"/>
<path opacity="0.07" d="M626.924 53.0161H394.708L373.081 536.576H605.296L626.924 53.0161Z" fill="#407BFF"/>
<path d="M600.495 263.919H402.285L400.632 300.916H598.842L600.495 263.919Z" fill="white"/>
<path d="M511.288 236.919H403.485L402.757 253.469H510.56L511.288 236.919Z" fill="#407BFF"/>
<path d="M596.028 363.772H397.818L396.165 400.769H594.375L596.028 363.772Z" fill="white"/>
<path opacity="0.47" d="M559.68 450.735H426.392L424.404 495.072H557.692L559.68 450.735Z" fill="#407BFF"/>
<path d="M550.765 501.96H417.477C417.419 501.975 417.358 501.975 417.3 501.96C417.28 501.903 417.28 501.84 417.3 501.783L419.268 457.426C419.268 457.396 419.274 457.366 419.286 457.338C419.298 457.311 419.316 457.286 419.338 457.265C419.36 457.245 419.386 457.23 419.415 457.22C419.444 457.21 419.474 457.207 419.504 457.209H552.792C552.816 457.197 552.843 457.191 552.871 457.191C552.898 457.191 552.925 457.197 552.949 457.209C552.963 457.233 552.97 457.26 552.97 457.288C552.97 457.316 552.963 457.343 552.949 457.367L551.021 501.822C550.997 501.869 550.96 501.906 550.914 501.931C550.869 501.956 550.816 501.966 550.765 501.96ZM417.713 501.488H550.529L552.497 457.603H419.681L417.713 501.488Z" fill="white"/>
<path d="M488.008 336.772H399.018L398.29 353.342H487.26L488.008 336.772Z" fill="#407BFF"/>
<path d="M557.141 144.407C556.632 155.174 552.803 165.52 546.18 174.024C541.277 180.448 534.967 185.663 527.735 189.268C520.503 192.874 512.541 194.775 504.46 194.825C497.929 194.875 491.458 193.587 485.444 191.041C479.431 188.496 474.002 184.745 469.492 180.022C464.983 175.299 461.488 169.702 459.223 163.577C456.959 157.452 455.972 150.928 456.324 144.407C457.016 130.875 462.851 118.119 472.637 108.748C482.422 99.3758 495.417 94.0962 508.966 93.9884C515.501 93.9275 521.98 95.2073 528.001 97.7488C534.022 100.29 539.458 104.039 543.972 108.765C548.487 113.49 551.985 119.091 554.25 125.221C556.515 131.351 557.499 137.881 557.141 144.407Z" fill="white"/>
<path d="M561.884 104.537C561.755 107.4 560.737 110.151 558.971 112.408C557.664 114.114 555.985 115.499 554.062 116.458C552.138 117.416 550.021 117.922 547.872 117.938C545.79 117.951 543.736 117.453 541.891 116.489C540.045 115.525 538.464 114.124 537.285 112.408C535.723 110.089 534.95 107.329 535.081 104.537C535.271 100.944 536.824 97.5591 539.424 95.0725C542.024 92.5858 545.475 91.1846 549.073 91.1546C550.808 91.1387 552.529 91.4784 554.128 92.1528C555.727 92.8271 557.171 93.8218 558.372 95.0755C559.572 96.3292 560.503 97.8154 561.107 99.4426C561.711 101.07 561.975 102.803 561.884 104.537Z" fill="#407BFF"/>
<path d="M423.637 282.418C423.542 284.003 422.85 285.494 421.7 286.59C420.549 287.686 419.026 288.304 417.438 288.321C416.671 288.331 415.91 288.182 415.203 287.886C414.495 287.589 413.856 287.151 413.325 286.597C412.794 286.044 412.382 285.388 412.114 284.669C411.847 283.95 411.73 283.184 411.77 282.418C411.855 280.829 412.545 279.332 413.697 278.235C414.849 277.137 416.378 276.522 417.969 276.514C418.735 276.508 419.495 276.658 420.201 276.955C420.907 277.253 421.545 277.691 422.075 278.244C422.606 278.797 423.018 279.452 423.287 280.17C423.555 280.887 423.674 281.652 423.637 282.418Z" fill="#263238"/>
<path d="M450.164 282.418C450.074 284.005 449.384 285.499 448.232 286.596C447.081 287.692 445.555 288.309 443.965 288.322C443.2 288.328 442.441 288.178 441.736 287.88C441.031 287.582 440.395 287.143 439.865 286.59C439.336 286.037 438.926 285.382 438.66 284.664C438.394 283.947 438.277 283.182 438.317 282.418C438.402 280.832 439.089 279.339 440.237 278.242C441.385 277.145 442.909 276.527 444.497 276.514C445.264 276.505 446.024 276.653 446.732 276.95C447.439 277.246 448.078 277.685 448.609 278.238C449.141 278.791 449.553 279.448 449.82 280.167C450.088 280.886 450.205 281.652 450.164 282.418Z" fill="#263238"/>
<path d="M476.712 282.418C476.622 284.005 475.931 285.499 474.78 286.596C473.628 287.692 472.103 288.309 470.513 288.322C469.747 288.328 468.987 288.178 468.281 287.88C467.575 287.583 466.937 287.144 466.406 286.591C465.876 286.039 465.464 285.383 465.195 284.666C464.927 283.948 464.808 283.183 464.845 282.418C464.935 280.83 465.626 279.337 466.777 278.24C467.929 277.144 469.454 276.527 471.044 276.514C471.811 276.505 472.572 276.653 473.279 276.95C473.987 277.246 474.626 277.685 475.157 278.238C475.688 278.791 476.1 279.448 476.368 280.167C476.635 280.886 476.752 281.652 476.712 282.418Z" fill="#263238"/>
<path d="M419.169 382.271C419.075 383.856 418.383 385.347 417.232 386.443C416.082 387.539 414.559 388.157 412.97 388.174C412.204 388.181 411.445 388.031 410.739 387.733C410.033 387.435 409.395 386.997 408.864 386.444C408.333 385.891 407.921 385.236 407.653 384.519C407.384 383.801 407.265 383.036 407.303 382.271C407.393 380.683 408.083 379.19 409.235 378.093C410.386 376.996 411.912 376.379 413.502 376.367C414.268 376.361 415.027 376.511 415.733 376.808C416.439 377.106 417.077 377.544 417.608 378.097C418.139 378.65 418.551 379.305 418.819 380.023C419.088 380.74 419.207 381.505 419.169 382.271Z" fill="#263238"/>
<path d="M445.697 382.271C445.607 383.855 444.919 385.346 443.772 386.442C442.625 387.538 441.104 388.157 439.518 388.174C438.751 388.184 437.99 388.035 437.283 387.739C436.575 387.442 435.936 387.004 435.405 386.45C434.874 385.897 434.462 385.241 434.194 384.522C433.927 383.803 433.81 383.037 433.85 382.271C433.94 380.683 434.631 379.19 435.782 378.093C436.934 376.997 438.459 376.379 440.049 376.367C440.814 376.36 441.573 376.511 442.278 376.808C442.983 377.106 443.62 377.545 444.149 378.098C444.678 378.651 445.088 379.307 445.355 380.024C445.621 380.742 445.737 381.506 445.697 382.271Z" fill="#263238"/>
<path d="M472.304 382.271C472.214 383.858 471.523 385.352 470.371 386.448C469.22 387.545 467.695 388.162 466.105 388.174C465.339 388.178 464.581 388.026 463.876 387.727C463.172 387.429 462.535 386.99 462.005 386.438C461.475 385.886 461.062 385.232 460.793 384.515C460.523 383.799 460.402 383.035 460.437 382.271C460.531 380.685 461.224 379.194 462.374 378.098C463.524 377.003 465.047 376.384 466.636 376.367C467.403 376.358 468.164 376.506 468.871 376.803C469.578 377.099 470.218 377.538 470.749 378.091C471.28 378.644 471.692 379.301 471.959 380.02C472.227 380.739 472.344 381.505 472.304 382.271Z" fill="#263238"/>
<path d="M498.792 382.271C498.697 383.856 498.005 385.347 496.855 386.443C495.704 387.539 494.181 388.157 492.593 388.174C491.828 388.178 491.069 388.026 490.365 387.727C489.66 387.429 489.023 386.99 488.493 386.438C487.963 385.886 487.551 385.232 487.281 384.515C487.012 383.799 486.891 383.035 486.925 382.271C487.02 380.685 487.712 379.194 488.862 378.098C490.013 377.003 491.536 376.384 493.124 376.367C493.89 376.361 494.65 376.511 495.356 376.808C496.062 377.106 496.7 377.544 497.231 378.097C497.761 378.65 498.173 379.305 498.442 380.023C498.71 380.74 498.829 381.505 498.792 382.271Z" fill="#263238"/>
<path d="M525.438 382.271C525.343 383.856 524.651 385.347 523.501 386.443C522.35 387.539 520.827 388.157 519.239 388.174C518.472 388.184 517.711 388.035 517.004 387.739C516.296 387.442 515.657 387.004 515.126 386.45C514.595 385.897 514.183 385.241 513.915 384.522C513.648 383.803 513.531 383.037 513.571 382.271C513.661 380.683 514.352 379.19 515.503 378.093C516.655 376.996 518.18 376.379 519.77 376.367C520.536 376.361 521.296 376.511 522.002 376.808C522.708 377.106 523.346 377.544 523.877 378.097C524.407 378.65 524.819 379.305 525.088 380.023C525.356 380.74 525.475 381.505 525.438 382.271Z" fill="#263238"/>
<path d="M521.41 141.781C529.647 133.726 530.084 120.815 522.386 112.943C514.689 105.072 501.771 105.22 493.534 113.275C485.297 121.33 484.86 134.241 492.558 142.113C500.256 149.984 513.173 149.836 521.41 141.781Z" fill="#407BFF"/>
<path d="M546.18 174.024C541.277 180.448 534.967 185.663 527.735 189.268C520.503 192.874 512.541 194.775 504.46 194.825C496.624 194.892 488.892 193.029 481.945 189.402C474.999 185.774 469.052 180.493 464.629 174.024C474.193 164.499 489.326 158.281 506.093 158.281C522.86 158.281 537.462 164.499 546.18 174.024Z" fill="#407BFF"/>
<path opacity="0.1" d="M521.41 141.781C529.647 133.726 530.084 120.815 522.386 112.943C514.689 105.072 501.771 105.22 493.534 113.275C485.297 121.33 484.86 134.241 492.558 142.113C500.256 149.984 513.173 149.836 521.41 141.781Z" fill="white"/>
<path opacity="0.1" d="M546.18 174.024C541.277 180.448 534.967 185.663 527.735 189.268C520.503 192.874 512.541 194.775 504.46 194.825C496.624 194.892 488.892 193.029 481.945 189.402C474.999 185.774 469.052 180.493 464.629 174.024C474.193 164.499 489.326 158.281 506.093 158.281C522.86 158.281 537.462 164.499 546.18 174.024Z" fill="white"/>
<path d="M256.638 309.831C254.769 313.925 252.801 318.431 251.088 322.8C249.376 327.169 247.625 331.675 246.11 336.162C243.016 345.005 240.659 354.088 239.064 363.32L238.631 366.212C238.59 366.709 238.637 367.208 238.769 367.688C239.234 369.319 239.965 370.862 240.934 372.254C243.461 375.857 246.393 379.158 249.672 382.094C253.128 385.309 256.755 388.337 260.535 391.166C264.313 394.078 268.288 396.912 272.204 399.589L268.524 406.496C259.173 402.422 250.297 397.334 242.056 391.323C237.659 388.117 233.691 384.36 230.248 380.145C228.207 377.637 226.616 374.794 225.545 371.742C224.922 369.836 224.603 367.844 224.6 365.839C224.6 365.366 224.6 364.677 224.6 364.343V363.379L224.797 361.411C225.925 351.158 228.081 341.044 231.232 331.223C232.767 326.382 234.4 321.56 236.27 316.857C238.139 312.153 240.068 307.548 242.449 302.766L256.638 309.831Z" fill="#FEBCB4"/>
<path d="M269.429 398.368L283.343 391.323L279.741 406.594C279.741 406.594 270.197 409.271 265.769 404.626L269.429 398.368Z" fill="#FEBCB4"/>
<path d="M296.075 393.822L292.375 406.457L279.741 406.594L283.343 391.323L296.075 393.822Z" fill="#FEBCB4"/>
<path d="M315.715 236.152C316.459 238.879 317.495 241.518 318.805 244.024C318.422 244.457 317.929 244.78 317.379 244.956C316.828 245.133 316.239 245.158 315.676 245.027L315.715 236.152Z" fill="#F2A19C"/>
<path d="M315.302 236.27C316.117 236.27 316.778 235.257 316.778 234.007C316.778 232.757 316.117 231.744 315.302 231.744C314.487 231.744 313.826 232.757 313.826 234.007C313.826 235.257 314.487 236.27 315.302 236.27Z" fill="#263238"/>
<path d="M314.869 231.822L317.86 230.976C317.86 230.976 316.404 233.298 314.869 231.822Z" fill="#263238"/>
<path d="M277.282 250.596C279.072 259.747 280.863 276.534 274.448 282.654C274.448 282.654 276.967 291.943 293.989 291.943C312.704 291.943 302.924 282.654 302.924 282.654C292.71 280.214 292.966 272.637 294.757 265.513L277.282 250.596Z" fill="#FEBCB4"/>
<path d="M272.302 229.736C273.247 245.027 273.326 251.521 281.04 259.373C292.671 271.181 311.248 266.694 314.888 251.502C318.175 237.726 316.089 215.056 301.113 208.975C297.826 207.62 294.247 207.127 290.716 207.542C287.185 207.956 283.818 209.264 280.934 211.343C278.049 213.422 275.743 216.202 274.233 219.42C272.722 222.639 272.058 226.189 272.302 229.736Z" fill="#FEBCB4"/>
<path d="M273.818 212.537C266.143 215.331 255.91 213.245 259.924 236.919C264.175 261.991 257.642 270.236 257.642 270.236C257.642 270.236 286.747 276.435 316.463 269.863C316.463 269.863 307.391 254.001 309.93 242.311C313.177 227.552 310.618 222.101 310.618 222.101C310.618 222.101 284.602 208.601 273.818 212.537Z" fill="#263238"/>
<path d="M306.289 237.706C306.297 240.614 307.13 243.459 308.69 245.913C310.776 249.101 313.236 247.881 313.846 244.496C314.397 241.524 313.984 236.27 311.327 234.223C308.67 232.177 306.328 234.184 306.289 237.706Z" fill="#FEBCB4"/>
<path d="M267.147 215.115C264.943 208.916 275.451 199.371 297.689 203.307C319.927 207.243 320.891 225.761 320.891 225.761L316.404 220.408L316.601 226.037L293.753 230.425L267.147 215.115Z" fill="#263238"/>
<path d="M269.036 283.697C268.905 282.798 269.13 281.884 269.663 281.149C270.196 280.414 270.995 279.916 271.89 279.761C278.817 278.62 294.56 276.298 302.471 277.4C308.375 278.226 309.91 281.65 310.166 284.464C310.206 284.957 310.14 285.453 309.973 285.918C309.805 286.383 309.54 286.807 309.195 287.161C308.85 287.516 308.434 287.792 307.973 287.972C307.513 288.151 307.019 288.23 306.525 288.204L272.323 286.669C271.516 286.628 270.749 286.31 270.15 285.768C269.551 285.227 269.158 284.495 269.036 283.697Z" fill="#407BFF"/>
<path opacity="0.6" d="M269.036 283.697C268.905 282.798 269.13 281.884 269.663 281.149C270.196 280.414 270.995 279.916 271.89 279.761C278.817 278.62 294.56 276.298 302.471 277.4C308.375 278.226 309.91 281.65 310.166 284.464C310.206 284.957 310.14 285.453 309.973 285.918C309.805 286.383 309.54 286.807 309.195 287.161C308.85 287.516 308.434 287.792 307.973 287.972C307.513 288.151 307.019 288.23 306.525 288.204L272.323 286.669C271.516 286.628 270.749 286.31 270.15 285.768C269.551 285.227 269.158 284.495 269.036 283.697Z" fill="black"/>
<path d="M288.813 627.495L301.507 636.311L322.741 607.52L310.047 598.724L288.813 627.495Z" fill="#FEBCB4"/>
<path d="M259.216 626.924L272.617 634.56L291.411 604.116L278.01 596.48L259.216 626.924Z" fill="#FEBCB4"/>
<path d="M322.721 607.52L311.78 622.358L299.086 613.562L310.028 598.724L322.721 607.52Z" fill="#F2A19C"/>
<path d="M277.99 596.48L291.411 604.135L281.729 619.82L268.308 612.165L277.99 596.48Z" fill="#F2A19C"/>
<path d="M299.519 379.811C299.519 379.811 349.072 442.253 339.763 501.98C332.265 550.214 288.774 615.53 288.774 615.53L268.327 605.375C282.74 576.496 295.039 546.61 305.128 515.952C308.239 506.434 309.147 496.333 307.783 486.413C306.42 476.492 302.82 467.011 297.256 458.685C272.145 422.023 231.921 443.847 258.98 379.811H299.519Z" fill="#407BFF"/>
<path opacity="0.6" d="M299.519 379.811C299.519 379.811 349.072 442.253 339.763 501.98C332.265 550.214 288.774 615.53 288.774 615.53L268.327 605.375C282.74 576.496 295.039 546.61 305.128 515.952C308.239 506.434 309.147 496.333 307.783 486.413C306.42 476.492 302.82 467.011 297.256 458.685C272.145 422.023 231.921 443.847 258.98 379.811H299.519Z" fill="black"/>
<path opacity="0.4" d="M323.823 419.917L316.621 412.754C316.621 413.325 330.573 499.461 334.489 523.667C336.8 516.595 338.57 509.359 339.783 502.019C344.388 472.717 334.765 442.785 323.823 419.917Z" fill="black"/>
<path d="M321.639 379.811C321.639 379.811 381.306 458.292 382.999 505.345C384.396 544.704 318.057 620.961 318.057 620.961L298.771 608.484C298.771 608.484 337.598 554.327 347.379 510.088C343.601 466.242 263.703 379.811 263.703 379.811H321.639Z" fill="#407BFF"/>
<path opacity="0.6" d="M321.639 379.811C321.639 379.811 381.306 458.292 382.999 505.345C384.396 544.704 318.057 620.961 318.057 620.961L298.771 608.484C298.771 608.484 337.598 554.327 347.379 510.088C343.601 466.242 263.703 379.811 263.703 379.811H321.639Z" fill="black"/>
<path d="M247.822 286.157C241.445 287.672 235.325 310.855 235.325 310.855L260.259 327.503C260.259 327.503 268.564 309.162 265.651 301.133C262.64 292.769 255.831 284.248 247.822 286.157Z" fill="#407BFF"/>
<path opacity="0.2" d="M252.702 301.094L250.97 321.304L260.239 327.523C262.798 321.761 264.693 315.727 265.887 309.536L252.702 301.094Z" fill="black"/>
<path d="M329.019 286.61C329.019 286.61 336.379 289.188 321.639 379.791H258.941C260.003 354.208 260.023 338.465 247.822 286.157C256.601 284.348 265.5 283.177 274.448 282.654C283.928 281.974 293.444 281.974 302.924 282.654C315.164 283.776 329.019 286.61 329.019 286.61Z" fill="#407BFF"/>
<path d="M335.394 301.093C336.811 305.029 338.307 309.26 339.881 313.334C341.456 317.408 342.951 321.599 344.545 325.732L349.367 338.091L350.587 341.18L351.217 342.715L351.512 343.483C351.512 343.62 351.512 343.62 351.512 343.601C351.152 343.094 350.681 342.676 350.134 342.381C349.356 341.923 348.478 341.659 347.576 341.613C346.826 341.59 346.081 341.731 345.392 342.026C344.486 342.44 344.486 342.617 344.506 342.597C344.67 342.466 344.815 342.314 344.939 342.145C346.028 340.714 346.971 339.178 347.753 337.559C348.678 335.749 349.564 333.82 350.449 331.872C352.181 327.936 353.775 323.862 355.369 319.749C356.963 315.636 358.478 311.484 359.954 307.292L364.441 294.737L372.018 296.705C370.522 305.679 368.593 314.416 366.271 323.311C365.15 327.739 363.831 332.128 362.335 336.556C361.588 338.779 360.761 340.983 359.816 343.247C358.832 345.703 357.62 348.061 356.195 350.292C355.672 351.042 355.093 351.753 354.464 352.417C353.459 353.503 352.239 354.367 350.882 354.956C349.678 355.473 348.374 355.715 347.064 355.664C345.597 355.61 344.169 355.183 342.912 354.424C341.429 353.499 340.199 352.221 339.33 350.705C339.035 350.193 338.779 349.682 338.602 349.308L338.228 348.56L337.48 347.025L335.985 343.975C334.017 339.881 332.049 335.749 330.337 331.596C328.625 327.444 326.814 323.233 325.122 319.002C323.429 314.771 321.914 310.54 320.478 305.974L335.394 301.093Z" fill="#FEBCB4"/>
<path d="M329.018 286.61C336.556 288.4 345.037 310.677 345.037 310.677L322.623 329.747C322.623 329.747 308.119 305.462 311.051 297.453C314.101 289.109 319.179 284.268 329.018 286.61Z" fill="#407BFF"/>
<path d="M368.003 287.692L375.875 281.119L381.346 289.64L377.312 296.744C377.312 296.744 370.896 302.648 365.229 299.637C364.329 297.615 364.113 295.355 364.614 293.2C365.115 291.044 366.305 289.11 368.003 287.692Z" fill="#FEBCB4"/>
<path d="M390.083 281.139L389.493 283.284L377.036 285.37L375.816 281.119L390.083 281.139Z" fill="#FEBCB4"/>
<path d="M319.592 621.965L297.118 607.441L301.152 600.436L326.401 615.963L319.592 621.965Z" fill="#407BFF"/>
<path d="M281.414 633.536C279.443 633.295 277.548 632.623 275.865 631.568C275.795 631.544 275.735 631.499 275.692 631.439C275.65 631.379 275.627 631.307 275.627 631.234C275.627 631.16 275.65 631.088 275.692 631.029C275.735 630.969 275.795 630.923 275.865 630.899C276.475 630.702 281.769 629.069 283.304 630.329C283.476 630.472 283.607 630.659 283.683 630.87C283.759 631.081 283.778 631.308 283.736 631.529C283.709 631.883 283.592 632.225 283.395 632.521C283.199 632.817 282.93 633.058 282.615 633.221C282.246 633.423 281.834 633.531 281.414 633.536ZM276.986 631.372C279.446 632.631 281.414 633.084 282.359 632.611C282.565 632.497 282.738 632.333 282.862 632.133C282.986 631.933 283.057 631.705 283.067 631.47C283.067 631.155 283.067 631.017 282.89 630.939C282.064 630.269 279.112 630.781 276.947 631.372H276.986Z" fill="#263238"/>
<path d="M276.002 631.706C275.898 631.705 275.799 631.662 275.727 631.588C275.697 631.534 275.682 631.473 275.682 631.411C275.682 631.349 275.697 631.288 275.727 631.234C275.727 631.057 277.006 626.786 279.013 625.822C279.27 625.705 279.548 625.645 279.83 625.645C280.112 625.645 280.39 625.705 280.647 625.822C280.923 625.909 281.162 626.086 281.326 626.325C281.49 626.564 281.57 626.851 281.552 627.14C281.414 628.912 277.813 631.352 276.16 631.765L276.002 631.706ZM279.82 626.334C279.629 626.34 279.441 626.387 279.269 626.471C278.049 627.062 277.045 629.364 276.553 630.761C278.285 630.033 280.666 628.105 280.745 627.022C280.745 626.845 280.745 626.629 280.292 626.432C280.145 626.353 279.985 626.3 279.82 626.275V626.334Z" fill="#263238"/>
<path d="M309.497 642.038C307.273 642.038 304.183 639.184 302.491 637.433C302.448 637.373 302.424 637.3 302.424 637.226C302.424 637.152 302.448 637.08 302.491 637.02C302.53 636.956 302.585 636.904 302.651 636.87C302.717 636.835 302.79 636.819 302.865 636.823C303.652 636.823 310.481 637.846 311.445 639.775C311.547 639.947 311.601 640.145 311.601 640.345C311.601 640.546 311.547 640.743 311.445 640.916C311.3 641.216 311.082 641.475 310.81 641.668C310.538 641.861 310.221 641.981 309.89 642.018L309.497 642.038ZM303.79 637.708C306.269 640.109 308.454 641.447 309.693 641.29C309.911 641.262 310.117 641.18 310.296 641.053C310.474 640.926 310.619 640.758 310.717 640.562C310.761 640.494 310.784 640.416 310.784 640.335C310.784 640.255 310.761 640.176 310.717 640.109C310.205 639.046 306.564 638.141 303.79 637.708Z" fill="#263238"/>
<path d="M304.006 637.61C303.564 637.622 303.122 637.589 302.687 637.511C302.627 637.502 302.569 637.478 302.521 637.44C302.473 637.402 302.435 637.352 302.412 637.295C302.383 637.237 302.367 637.173 302.367 637.108C302.367 637.043 302.383 636.979 302.412 636.921C302.53 636.783 305.187 633.576 307.706 633.359C308.419 633.304 309.125 633.53 309.674 633.989C310.441 634.658 310.402 635.248 310.205 635.622C309.713 636.96 306.308 637.61 304.006 637.61ZM303.494 636.882C305.698 637 309.221 636.272 309.674 635.307C309.674 635.307 309.831 634.992 309.319 634.56C309.116 634.382 308.878 634.249 308.621 634.168C308.363 634.087 308.092 634.059 307.824 634.087C306.127 634.561 304.616 635.543 303.494 636.901V636.882Z" fill="#263238"/>
<path d="M276.534 629.581L259.845 624.858C259.558 624.771 259.248 624.793 258.976 624.92C258.703 625.047 258.487 625.27 258.369 625.546L252.741 638.2C252.609 638.524 252.547 638.873 252.559 639.223C252.571 639.572 252.657 639.916 252.812 640.23C252.966 640.544 253.185 640.822 253.454 641.045C253.724 641.269 254.037 641.433 254.375 641.526C260.278 643.061 263.112 643.494 270.453 645.6C274.979 646.859 281.434 649.201 287.672 650.972C293.91 652.743 295.996 646.662 293.576 645.364C282.634 639.578 281.768 635.524 278.777 631.194C278.241 630.41 277.447 629.839 276.534 629.581Z" fill="#407BFF"/>
<path d="M302.944 635.13L288.696 625.291C288.454 625.115 288.156 625.034 287.859 625.063C287.561 625.092 287.285 625.229 287.082 625.448L277.636 635.603C277.406 635.865 277.234 636.173 277.132 636.507C277.03 636.841 277.001 637.193 277.046 637.539C277.09 637.886 277.208 638.218 277.391 638.516C277.575 638.813 277.819 639.068 278.108 639.263C283.126 642.628 285.724 643.986 292.002 648.335C295.938 651.012 303.554 656.955 308.867 660.654C314.18 664.354 318.136 659.277 316.247 657.27C307.785 648.237 305.935 642.569 304.538 637.433C304.295 636.501 303.73 635.685 302.944 635.13Z" fill="#407BFF"/>
<path d="M291.391 616.828L265.71 604.057L268.367 597.09L295.8 610.551L291.391 616.828Z" fill="#407BFF"/>
<path d="M257.996 376.111L255.831 381.779C255.614 382.212 256.126 382.664 256.854 382.664H321.953C322.524 382.664 322.996 382.389 323.036 382.035L323.587 376.406C323.587 376.032 323.134 375.698 322.524 375.698H259.019C258.828 375.68 258.635 375.708 258.457 375.78C258.279 375.852 258.121 375.965 257.996 376.111Z" fill="#407BFF"/>
<path opacity="0.4" d="M257.996 376.111L255.831 381.779C255.614 382.212 256.126 382.664 256.854 382.664H321.953C322.524 382.664 322.996 382.389 323.036 382.035L323.587 376.406C323.587 376.032 323.134 375.698 322.524 375.698H259.019C258.828 375.68 258.635 375.708 258.457 375.78C258.279 375.852 258.121 375.965 257.996 376.111Z" fill="white"/>
<path d="M268.249 383.215H266.537C266.202 383.215 265.946 383.038 265.966 382.822L266.773 375.521C266.773 375.324 267.088 375.147 267.422 375.147H269.134C269.469 375.147 269.725 375.324 269.705 375.521L268.898 382.822C268.878 383.038 268.583 383.215 268.249 383.215Z" fill="#407BFF"/>
<path d="M308.395 383.215H306.702C306.368 383.215 306.112 383.038 306.131 382.822L306.919 375.521C306.919 375.324 307.253 375.147 307.588 375.147H309.28C309.615 375.147 309.89 375.324 309.851 375.521L309.064 382.822C308.965 383.038 308.749 383.215 308.395 383.215Z" fill="#407BFF"/>
<g style="mix-blend-mode:multiply">
<path d="M266.753 716.485C295.87 716.485 319.474 714.775 319.474 712.667C319.474 710.558 295.87 708.849 266.753 708.849C237.636 708.849 214.032 710.558 214.032 712.667C214.032 714.775 237.636 716.485 266.753 716.485Z" fill="#F5F5F5"/>
</g>
<path d="M298.87 707.275C289.542 704.559 279.19 701.076 272.932 697.435C272.755 697.317 272.558 697.258 272.381 697.16V654.928H291.254C292.686 654.843 294.032 654.214 295.017 653.17C296.001 652.125 296.549 650.744 296.549 649.309C296.549 647.874 296.001 646.493 295.017 645.449C294.032 644.405 292.686 643.776 291.254 643.691H272.48V451.188H261.144V643.691H242.39C241.624 643.645 240.857 643.757 240.136 644.019C239.415 644.281 238.755 644.687 238.197 645.214C237.639 645.74 237.194 646.374 236.89 647.079C236.586 647.783 236.429 648.542 236.429 649.309C236.429 650.076 236.586 650.835 236.89 651.54C237.194 652.244 237.639 652.879 238.197 653.405C238.755 653.931 239.415 654.338 240.136 654.6C240.857 654.861 241.624 654.973 242.39 654.928H261.144V697.101C260.967 697.101 260.79 697.258 260.613 697.376C254.257 701.076 243.984 704.559 234.656 707.216C234.026 707.406 233.485 707.816 233.131 708.371C232.777 708.926 232.633 709.589 232.726 710.241C232.819 710.893 233.142 711.49 233.636 711.924C234.131 712.358 234.765 712.601 235.423 712.608H298.102C298.731 712.565 299.326 712.308 299.789 711.879C300.251 711.45 300.552 710.876 300.642 710.252C300.732 709.627 300.605 708.991 300.282 708.45C299.96 707.908 299.461 707.493 298.87 707.275Z" fill="#E0E0E0"/>
<path d="M301.762 431.587H231.783C226.153 431.587 221.589 436.151 221.589 441.781V462.582C221.589 468.212 226.153 472.776 231.783 472.776H301.762C307.392 472.776 311.956 468.212 311.956 462.582V441.781C311.956 436.151 307.392 431.587 301.762 431.587Z" fill="#407BFF"/>
<path d="M231.133 472.796V476.377C231.133 479.329 234.341 481.73 238.277 481.73H295.347C299.283 481.73 302.491 479.329 302.491 476.377V472.796H231.133Z" fill="#407BFF"/>
<path opacity="0.3" d="M231.133 472.796V476.377C231.133 479.329 234.341 481.73 238.277 481.73H295.347C299.283 481.73 302.491 479.329 302.491 476.377V472.796H231.133Z" fill="white"/>
</svg>
