<svg width="571" height="567" viewBox="0 0 571 567" fill="none" xmlns="http://www.w3.org/2000/svg">
<path d="M403.944 120.432H103.375C96.5834 120.432 91.0776 125.974 91.0776 132.811V489.037C91.0776 495.873 96.5834 501.415 103.375 501.415H403.944C410.736 501.415 416.242 495.873 416.242 489.037V132.811C416.242 125.974 410.736 120.432 403.944 120.432Z" fill="#407BFF"/>
<path opacity="0.6" d="M403.944 120.432H103.375C96.5834 120.432 91.0776 125.974 91.0776 132.811V489.037C91.0776 495.873 96.5834 501.415 103.375 501.415H403.944C410.736 501.415 416.242 495.873 416.242 489.037V132.811C416.242 125.974 410.736 120.432 403.944 120.432Z" fill="white"/>
<path d="M363.574 295.164H143.763V333.042H363.574V295.164Z" fill="white"/>
<g opacity="0.4">
<path d="M163.419 317.789V318.787H155.792V307.931H163.183V308.912H156.934V312.784H162.512V313.748H156.934V317.789H163.419Z" fill="#263238"/>
<path d="M164.947 314.103H168.996V315.05H164.947V314.103Z" fill="#263238"/>
<path d="M184.805 314.052V318.787H183.713V314.154C183.713 312.463 182.856 311.55 181.395 311.55C181.016 311.532 180.637 311.598 180.286 311.742C179.935 311.887 179.62 312.107 179.362 312.388C179.105 312.668 178.911 313.001 178.795 313.365C178.679 313.728 178.643 314.113 178.69 314.492V318.787H177.581V314.154C177.581 312.463 176.724 311.55 175.246 311.55C174.867 311.532 174.489 311.598 174.138 311.742C173.787 311.887 173.471 312.107 173.214 312.388C172.956 312.668 172.762 313.001 172.646 313.365C172.53 313.728 172.494 314.113 172.541 314.492V318.787H171.432V310.62H172.491V312.108C172.808 311.609 173.249 311.203 173.771 310.93C174.293 310.657 174.877 310.527 175.464 310.552C176.058 310.501 176.652 310.637 177.167 310.939C177.681 311.242 178.09 311.697 178.337 312.243C178.673 311.698 179.147 311.254 179.712 310.956C180.276 310.659 180.91 310.519 181.546 310.552C182.002 310.517 182.46 310.585 182.886 310.752C183.312 310.919 183.696 311.18 184.009 311.516C184.321 311.852 184.555 312.254 184.693 312.693C184.831 313.132 184.869 313.596 184.805 314.052Z" fill="#263238"/>
<path d="M193.911 313.714V318.787H192.853V317.502C192.552 317.959 192.134 318.327 191.643 318.565C191.152 318.803 190.607 318.903 190.064 318.855C188.233 318.855 187.107 317.891 187.107 316.487C187.107 315.084 187.913 314.171 190.232 314.171H192.802V313.68C192.802 312.277 192.029 311.516 190.517 311.516C189.531 311.505 188.572 311.846 187.813 312.48L187.325 311.668C188.275 310.899 189.468 310.503 190.685 310.552C191.114 310.499 191.549 310.544 191.959 310.683C192.368 310.822 192.741 311.052 193.05 311.355C193.36 311.659 193.598 312.028 193.747 312.436C193.896 312.845 193.952 313.281 193.911 313.714ZM192.802 316.335V314.999H190.265C188.703 314.999 188.182 315.608 188.182 316.453C188.182 317.299 188.938 317.992 190.232 317.992C190.78 318.029 191.325 317.888 191.788 317.589C192.25 317.291 192.606 316.851 192.802 316.335Z" fill="#263238"/>
<path d="M196.632 308.049C196.635 307.945 196.657 307.842 196.699 307.746C196.741 307.651 196.801 307.564 196.875 307.492C196.95 307.42 197.039 307.363 197.135 307.325C197.232 307.287 197.335 307.269 197.439 307.271C197.54 307.269 197.641 307.287 197.736 307.324C197.83 307.361 197.917 307.416 197.99 307.487C198.063 307.558 198.122 307.642 198.163 307.736C198.204 307.829 198.226 307.93 198.228 308.032C198.231 308.138 198.212 308.243 198.173 308.342C198.134 308.44 198.077 308.53 198.003 308.605C197.93 308.681 197.842 308.741 197.745 308.782C197.648 308.823 197.544 308.844 197.439 308.844C197.334 308.846 197.229 308.827 197.131 308.788C197.034 308.749 196.945 308.691 196.869 308.617C196.794 308.543 196.735 308.455 196.694 308.357C196.653 308.26 196.632 308.155 196.632 308.049ZM196.884 310.62H197.976V318.787H196.884V310.62Z" fill="#263238"/>
<path d="M201.017 307.271H202.109V318.787H201.017V307.271Z" fill="#263238"/>
</g>
<path d="M363.574 346.908H143.763V384.787H363.574V346.908Z" fill="white"/>
<g opacity="0.4">
<path d="M164.225 363.446C164.225 365.763 162.545 367.167 159.823 367.167H156.934V370.549H155.792V359.692H159.823C162.562 359.726 164.225 361.13 164.225 363.446ZM163.083 363.446C163.083 361.755 161.957 360.724 159.723 360.724H156.867V366.152H159.723C161.957 366.152 163.083 365.154 163.083 363.446Z" fill="#263238"/>
<path d="M172.508 365.526V370.599H171.449V369.314C171.149 369.772 170.731 370.139 170.24 370.377C169.749 370.615 169.203 370.715 168.66 370.667C166.829 370.667 165.704 369.703 165.704 368.283C165.704 366.862 166.51 365.932 168.828 365.932H171.399V365.425C171.399 364.038 170.609 363.277 169.097 363.277C168.115 363.264 167.162 363.606 166.409 364.241L165.905 363.413C166.862 362.661 168.052 362.272 169.265 362.313C169.7 362.257 170.142 362.3 170.557 362.441C170.973 362.582 171.351 362.816 171.664 363.125C171.976 363.435 172.214 363.812 172.361 364.228C172.507 364.644 172.557 365.088 172.508 365.526ZM171.416 368.13V366.795H168.828C167.266 366.795 166.762 367.42 166.762 368.266C166.762 369.111 167.501 369.788 168.812 369.788C169.365 369.829 169.917 369.69 170.385 369.392C170.854 369.093 171.215 368.651 171.416 368.13Z" fill="#263238"/>
<path d="M174.355 369.652L174.843 368.79C175.69 369.385 176.699 369.704 177.732 369.703C179.261 369.703 179.899 369.179 179.899 368.367C179.899 366.237 174.641 367.911 174.641 364.698C174.641 363.362 175.783 362.364 177.85 362.364C178.858 362.355 179.85 362.618 180.723 363.125L180.235 364.004C179.529 363.535 178.697 363.293 177.85 363.311C176.388 363.311 175.733 363.886 175.733 364.664C175.733 366.862 180.991 365.205 180.991 368.333C180.991 369.754 179.765 370.667 177.631 370.667C176.459 370.698 175.308 370.341 174.355 369.652Z" fill="#263238"/>
<path d="M181.882 369.652L182.386 368.79C183.224 369.392 184.229 369.712 185.259 369.703C186.804 369.703 187.426 369.179 187.426 368.367C187.426 366.237 182.184 367.911 182.184 364.698C182.184 363.362 183.327 362.364 185.376 362.364C186.385 362.351 187.378 362.614 188.249 363.125L187.779 364.004C187.065 363.536 186.228 363.295 185.376 363.311C183.915 363.311 183.276 363.886 183.276 364.664C183.276 366.862 188.535 365.205 188.535 368.333C188.535 369.754 187.291 370.667 185.175 370.667C183.997 370.695 182.842 370.339 181.882 369.652Z" fill="#263238"/>
<path d="M202.277 362.432L199.219 370.582H198.195L195.708 363.903L193.155 370.582H192.13L188.988 362.432H190.03L192.583 369.365L195.187 362.432H196.128L198.715 369.365L201.286 362.432H202.277Z" fill="#263238"/>
<path d="M202.882 366.507C202.882 365.684 203.124 364.88 203.578 364.196C204.032 363.512 204.678 362.979 205.433 362.664C206.188 362.349 207.019 362.267 207.821 362.427C208.622 362.588 209.359 362.984 209.937 363.566C210.515 364.147 210.908 364.889 211.068 365.696C211.227 366.502 211.146 367.339 210.833 368.099C210.52 368.859 209.99 369.509 209.311 369.966C208.631 370.423 207.832 370.667 207.015 370.667C206.467 370.686 205.921 370.591 205.411 370.389C204.901 370.186 204.438 369.881 204.05 369.491C203.663 369.1 203.359 368.634 203.158 368.121C202.957 367.608 202.863 367.058 202.882 366.507ZM210.022 366.507C209.995 365.911 209.795 365.336 209.447 364.853C209.098 364.37 208.616 364.001 208.061 363.792C207.506 363.583 206.901 363.542 206.324 363.676C205.746 363.81 205.22 364.111 204.811 364.543C204.402 364.976 204.128 365.519 204.024 366.107C203.92 366.695 203.989 367.3 204.224 367.848C204.459 368.396 204.849 368.862 205.345 369.189C205.841 369.516 206.422 369.689 207.015 369.686C207.425 369.694 207.832 369.616 208.21 369.457C208.589 369.298 208.93 369.062 209.213 368.763C209.496 368.464 209.714 368.109 209.853 367.721C209.992 367.332 210.05 366.919 210.022 366.507Z" fill="#263238"/>
<path d="M217.448 362.364V363.429H217.179C216.795 363.411 216.411 363.478 216.055 363.626C215.699 363.773 215.38 363.998 215.12 364.283C214.861 364.569 214.667 364.909 214.552 365.279C214.437 365.648 214.405 366.039 214.457 366.423V370.582H213.365V362.432H214.407V364.021C214.69 363.47 215.132 363.017 215.674 362.722C216.216 362.426 216.834 362.302 217.448 362.364Z" fill="#263238"/>
<path d="M226.738 359.168V370.667H225.696V369.061C225.37 369.595 224.909 370.033 224.361 370.33C223.812 370.627 223.194 370.773 222.572 370.752C221.523 370.684 220.54 370.217 219.821 369.446C219.102 368.675 218.702 367.657 218.702 366.6C218.702 365.543 219.102 364.525 219.821 363.754C220.54 362.983 221.523 362.516 222.572 362.449C223.186 362.435 223.794 362.584 224.333 362.881C224.873 363.177 225.325 363.612 225.646 364.14V359.168H226.738ZM225.663 366.592C225.636 365.995 225.437 365.42 225.088 364.937C224.739 364.455 224.257 364.086 223.702 363.876C223.147 363.667 222.542 363.627 221.965 363.76C221.387 363.894 220.861 364.196 220.452 364.628C220.043 365.06 219.769 365.604 219.665 366.192C219.561 366.779 219.63 367.385 219.865 367.933C220.1 368.481 220.49 368.947 220.986 369.274C221.482 369.601 222.063 369.773 222.656 369.771C223.073 369.78 223.488 369.7 223.873 369.536C224.258 369.372 224.604 369.127 224.888 368.819C225.172 368.511 225.388 368.145 225.522 367.747C225.655 367.348 225.703 366.926 225.663 366.507V366.592Z" fill="#263238"/>
</g>
<path opacity="0.2" d="M363.574 423.426H143.763V461.305H363.574V423.426Z" fill="black"/>
<g opacity="0.5">
<path d="M197.22 406.026H193.625L192.852 407.717H192.146L195.086 401.24H195.758L198.698 407.717H197.993L197.22 406.026ZM196.968 405.468L195.422 401.984L193.877 405.468H196.968Z" fill="black"/>
<path d="M199.64 400.885H200.295V407.751H199.64V400.885Z" fill="black"/>
<path d="M204.562 402.847V403.489H204.394C204.159 403.469 203.923 403.502 203.703 403.587C203.483 403.671 203.285 403.805 203.124 403.977C202.962 404.149 202.841 404.356 202.77 404.582C202.699 404.808 202.68 405.047 202.714 405.282V407.768H202.059V402.898H202.697V403.845C202.866 403.503 203.136 403.223 203.47 403.044C203.805 402.866 204.186 402.796 204.562 402.847Z" fill="black"/>
<path d="M209.905 405.519H205.789C205.801 405.756 205.861 405.988 205.963 406.201C206.066 406.415 206.21 406.606 206.387 406.764C206.563 406.921 206.769 407.041 206.992 407.118C207.216 407.194 207.452 407.226 207.687 407.21C207.966 407.219 208.244 407.168 208.502 407.06C208.76 406.953 208.992 406.79 209.182 406.584L209.535 407.007C209.188 407.374 208.741 407.629 208.249 407.741C207.758 407.853 207.245 407.816 206.775 407.636C206.305 407.455 205.898 407.138 205.606 406.725C205.314 406.313 205.149 405.822 205.133 405.316C205.117 404.994 205.167 404.673 205.279 404.372C205.391 404.071 205.564 403.796 205.786 403.564C206.008 403.333 206.275 403.15 206.57 403.026C206.865 402.903 207.183 402.842 207.502 402.847C207.822 402.839 208.139 402.898 208.435 403.021C208.731 403.144 208.998 403.327 209.219 403.559C209.44 403.792 209.611 404.068 209.72 404.37C209.83 404.673 209.875 404.995 209.854 405.316C209.854 405.316 209.905 405.451 209.905 405.519ZM205.856 405.028H209.216C209.216 404.58 209.039 404.15 208.724 403.833C208.409 403.515 207.981 403.337 207.536 403.337C207.09 403.337 206.663 403.515 206.348 403.833C206.033 404.15 205.856 404.58 205.856 405.028Z" fill="black"/>
<path d="M214.76 404.825V407.835H214.189V407.074C214.01 407.353 213.759 407.576 213.463 407.719C213.166 407.862 212.836 407.92 212.509 407.886C211.417 407.886 210.829 407.311 210.829 406.466C210.829 405.62 211.299 405.079 212.693 405.079H214.189V404.791C214.189 403.963 213.718 403.506 212.811 403.506C212.2 403.483 211.602 403.688 211.131 404.081L210.845 403.591C211.402 403.144 212.099 402.91 212.811 402.931C213.071 402.886 213.338 402.904 213.59 402.982C213.842 403.06 214.072 403.197 214.262 403.381C214.452 403.566 214.596 403.793 214.682 404.044C214.769 404.294 214.795 404.562 214.76 404.825ZM214.121 406.381V405.569H212.593C211.652 405.569 211.349 405.941 211.349 406.449C211.349 406.956 211.803 407.362 212.576 407.362C212.924 407.389 213.271 407.299 213.563 407.106C213.854 406.913 214.075 406.628 214.189 406.296L214.121 406.381Z" fill="black"/>
<path d="M220.908 400.885V407.751H220.287V406.787C220.096 407.11 219.822 407.375 219.493 407.553C219.165 407.732 218.795 407.818 218.422 407.801C217.804 407.75 217.228 407.467 216.809 407.008C216.389 406.549 216.156 405.948 216.156 405.324C216.156 404.7 216.389 404.099 216.809 403.64C217.228 403.181 217.804 402.898 218.422 402.847C218.786 402.837 219.146 402.92 219.469 403.089C219.793 403.257 220.068 403.506 220.27 403.811V400.885H220.908ZM220.27 405.316C220.253 404.962 220.134 404.621 219.927 404.335C219.72 404.048 219.434 403.83 219.104 403.705C218.774 403.581 218.416 403.557 218.073 403.636C217.73 403.716 217.418 403.894 217.174 404.15C216.931 404.406 216.768 404.729 216.705 405.077C216.643 405.426 216.683 405.785 216.821 406.111C216.959 406.436 217.189 406.714 217.483 406.91C217.776 407.105 218.12 407.209 218.472 407.21C218.722 407.225 218.973 407.186 219.207 407.096C219.441 407.006 219.654 406.866 219.83 406.687C220.007 406.508 220.143 406.293 220.23 406.056C220.318 405.82 220.354 405.567 220.337 405.316H220.27Z" fill="black"/>
<path d="M226.872 402.881L224.453 408.343C224.05 409.289 223.529 409.594 222.773 409.594C222.339 409.606 221.918 409.448 221.597 409.154L221.9 408.664C222.136 408.902 222.456 409.036 222.79 409.036C223.227 409.036 223.512 408.833 223.798 408.207L224 407.751L221.832 402.881H222.588L224.42 407.024L226.234 402.881H226.872Z" fill="black"/>
<path d="M233.861 404.825V407.835H233.239V407.074C233.061 407.353 232.81 407.576 232.513 407.719C232.217 407.862 231.887 407.92 231.559 407.886C230.467 407.886 229.879 407.311 229.879 406.466C229.879 405.62 230.35 405.079 231.744 405.079H233.273V404.791C233.273 403.963 232.819 403.506 231.912 403.506C231.301 403.483 230.703 403.688 230.232 404.081L229.93 403.591C230.493 403.144 231.195 402.91 231.912 402.931C232.172 402.886 232.439 402.904 232.691 402.982C232.943 403.06 233.173 403.197 233.363 403.381C233.553 403.566 233.697 403.793 233.783 404.044C233.87 404.294 233.896 404.562 233.861 404.825ZM233.206 406.381V405.569H231.694C230.753 405.569 230.451 405.941 230.451 406.449C230.451 406.956 230.904 407.362 231.677 407.362C232.012 407.375 232.343 407.279 232.618 407.086C232.894 406.894 233.1 406.617 233.206 406.296V406.381Z" fill="black"/>
<path d="M246.108 404.927V407.751H245.47V404.994C245.47 403.963 244.949 403.439 244.076 403.439C243.85 403.421 243.624 403.452 243.412 403.531C243.2 403.61 243.008 403.734 242.848 403.894C242.689 404.055 242.566 404.249 242.487 404.462C242.409 404.675 242.378 404.903 242.396 405.13V407.683H241.757V404.994C241.757 403.963 241.236 403.439 240.346 403.439C240.121 403.421 239.895 403.452 239.683 403.531C239.471 403.61 239.278 403.734 239.119 403.894C238.959 404.055 238.836 404.249 238.758 404.462C238.68 404.675 238.648 404.903 238.666 405.13V407.683H238.011V402.813H238.632V403.709C238.818 403.406 239.081 403.16 239.395 402.996C239.708 402.832 240.06 402.757 240.413 402.779C240.765 402.751 241.117 402.836 241.419 403.021C241.721 403.207 241.956 403.483 242.093 403.811C242.289 403.479 242.57 403.208 242.908 403.026C243.246 402.844 243.626 402.759 244.008 402.779C244.299 402.727 244.597 402.747 244.878 402.837C245.159 402.927 245.414 403.084 245.621 403.296C245.827 403.507 245.98 403.766 246.065 404.051C246.15 404.335 246.165 404.635 246.108 404.927Z" fill="black"/>
<path d="M252.056 405.519H248.007C248.041 405.997 248.262 406.443 248.62 406.759C248.978 407.076 249.446 407.238 249.922 407.21C250.199 407.22 250.475 407.17 250.73 407.062C250.985 406.954 251.214 406.791 251.4 406.584L251.77 407.007C251.534 407.266 251.245 407.471 250.923 407.608C250.602 407.745 250.254 407.811 249.905 407.801C249.572 407.823 249.238 407.774 248.925 407.658C248.613 407.541 248.327 407.36 248.088 407.126C247.849 406.891 247.662 406.609 247.538 406.298C247.414 405.986 247.356 405.651 247.368 405.316C247.368 404.688 247.616 404.086 248.057 403.642C248.498 403.198 249.097 402.948 249.72 402.948C250.344 402.948 250.942 403.198 251.383 403.642C251.825 404.086 252.072 404.688 252.072 405.316C252.072 405.316 252.056 405.451 252.056 405.519ZM248.007 405.028H251.451C251.451 404.569 251.269 404.128 250.946 403.803C250.623 403.478 250.185 403.295 249.729 403.295C249.272 403.295 248.834 403.478 248.511 403.803C248.188 404.128 248.007 404.569 248.007 405.028Z" fill="black"/>
<path d="M261.396 404.927V407.751H260.741V404.994C260.741 403.963 260.237 403.439 259.364 403.439C259.138 403.418 258.91 403.447 258.697 403.525C258.484 403.603 258.29 403.726 258.13 403.888C257.97 404.049 257.846 404.244 257.769 404.459C257.692 404.673 257.663 404.902 257.684 405.13V407.683H257.028V404.994C257.028 403.963 256.524 403.439 255.634 403.439C255.408 403.418 255.181 403.447 254.967 403.525C254.754 403.603 254.561 403.726 254.4 403.888C254.24 404.049 254.117 404.244 254.04 404.459C253.963 404.673 253.933 404.902 253.954 405.13V407.683H253.299V402.813H253.92V403.709C254.104 403.405 254.367 403.157 254.681 402.993C254.996 402.829 255.348 402.755 255.701 402.779C256.053 402.751 256.405 402.836 256.707 403.021C257.009 403.207 257.245 403.483 257.381 403.811C257.577 403.479 257.858 403.208 258.196 403.026C258.534 402.844 258.914 402.759 259.296 402.779C259.587 402.727 259.885 402.747 260.166 402.837C260.447 402.927 260.702 403.084 260.909 403.296C261.116 403.507 261.268 403.766 261.353 404.051C261.438 404.335 261.453 404.635 261.396 404.927Z" fill="black"/>
<path d="M268.082 405.316C268.099 405.641 268.048 405.966 267.934 406.27C267.82 406.575 267.645 406.852 267.419 407.085C267.194 407.319 266.923 407.503 266.624 407.626C266.324 407.749 266.003 407.809 265.68 407.801C265.307 407.818 264.937 407.732 264.608 407.553C264.28 407.375 264.006 407.11 263.815 406.787V407.751H263.177V400.885H263.832V403.811C264.033 403.505 264.308 403.255 264.631 403.087C264.955 402.918 265.316 402.835 265.68 402.847C266.002 402.837 266.323 402.895 266.623 403.016C266.922 403.137 267.193 403.32 267.418 403.551C267.644 403.783 267.82 404.06 267.934 404.364C268.048 404.667 268.099 404.991 268.082 405.316ZM267.427 405.316C267.411 404.962 267.291 404.621 267.084 404.335C266.877 404.048 266.591 403.83 266.261 403.705C265.932 403.581 265.573 403.557 265.23 403.636C264.887 403.716 264.575 403.894 264.332 404.15C264.089 404.406 263.926 404.729 263.863 405.077C263.8 405.426 263.84 405.785 263.978 406.111C264.117 406.436 264.347 406.714 264.64 406.91C264.934 407.105 265.278 407.209 265.63 407.21C265.874 407.215 266.117 407.169 266.343 407.074C266.569 406.98 266.774 406.839 266.943 406.661C267.112 406.483 267.242 406.271 267.325 406.04C267.409 405.808 267.444 405.561 267.427 405.316Z" fill="black"/>
<path d="M273.644 405.519H269.629C269.641 405.756 269.701 405.988 269.804 406.201C269.906 406.415 270.05 406.606 270.227 406.763C270.403 406.921 270.609 407.041 270.832 407.118C271.056 407.194 271.292 407.226 271.527 407.21C271.806 407.209 272.082 407.147 272.335 407.027C272.587 406.907 272.811 406.733 272.989 406.516L273.358 406.939C273.011 407.306 272.564 407.562 272.073 407.673C271.582 407.785 271.069 407.749 270.598 407.568C270.128 407.387 269.721 407.071 269.429 406.658C269.137 406.245 268.973 405.755 268.957 405.248C268.94 404.927 268.99 404.605 269.102 404.304C269.214 404.003 269.387 403.728 269.609 403.497C269.831 403.265 270.098 403.082 270.393 402.959C270.688 402.835 271.006 402.774 271.325 402.779C271.644 402.771 271.961 402.831 272.256 402.953C272.551 403.076 272.817 403.26 273.037 403.492C273.257 403.725 273.426 404.001 273.533 404.304C273.641 404.606 273.684 404.928 273.661 405.248L273.644 405.519ZM269.595 405.028H272.955C272.955 404.58 272.778 404.15 272.463 403.832C272.148 403.515 271.721 403.337 271.275 403.337C270.829 403.337 270.402 403.515 270.087 403.832C269.772 404.15 269.595 404.58 269.595 405.028Z" fill="black"/>
<path d="M277.423 402.847V403.489H277.272C277.038 403.469 276.802 403.502 276.582 403.587C276.362 403.671 276.164 403.805 276.002 403.977C275.84 404.149 275.72 404.356 275.649 404.582C275.578 404.808 275.558 405.047 275.592 405.282V407.768H274.937V402.898H275.559V403.845C275.729 403.505 276 403.226 276.334 403.048C276.668 402.869 277.048 402.799 277.423 402.847Z" fill="black"/>
<path d="M281.657 402.931C281.657 402.255 281.12 401.798 280.179 401.798C279.848 401.78 279.517 401.837 279.212 401.966C278.906 402.095 278.634 402.292 278.415 402.542L277.928 402.17C278.214 401.845 278.57 401.589 278.969 401.422C279.367 401.255 279.798 401.182 280.229 401.206C281.523 401.206 282.346 401.832 282.346 402.897C282.346 404.47 280.666 404.588 280.666 405.874H279.977C279.977 404.284 281.657 404.132 281.657 402.931ZM279.843 407.311C279.864 407.199 279.923 407.097 280.011 407.024C280.098 406.951 280.208 406.911 280.322 406.911C280.435 406.911 280.545 406.951 280.633 407.024C280.72 407.097 280.78 407.199 280.801 407.311C280.814 407.382 280.811 407.455 280.793 407.525C280.775 407.594 280.742 407.659 280.697 407.715C280.651 407.77 280.594 407.815 280.529 407.846C280.464 407.876 280.393 407.892 280.322 407.892C280.25 407.892 280.179 407.876 280.115 407.846C280.05 407.815 279.992 407.77 279.947 407.715C279.901 407.659 279.868 407.594 279.85 407.525C279.832 407.455 279.83 407.382 279.843 407.311Z" fill="black"/>
<path d="M286.21 401.274H287.705V406.516H290.931V407.734H286.21V401.274Z" fill="black"/>
<path d="M291.267 405.265C291.233 404.717 291.364 404.172 291.642 403.7C291.92 403.228 292.332 402.85 292.825 402.617C293.319 402.383 293.87 402.304 294.409 402.39C294.947 402.476 295.448 402.723 295.846 403.098C296.243 403.474 296.52 403.961 296.639 404.496C296.758 405.032 296.715 405.591 296.515 406.101C296.315 406.612 295.967 407.05 295.517 407.359C295.066 407.668 294.534 407.834 293.989 407.835C293.639 407.858 293.289 407.809 292.96 407.69C292.63 407.572 292.328 407.386 292.073 407.145C291.818 406.904 291.615 406.613 291.476 406.289C291.337 405.966 291.266 405.617 291.267 405.265ZM295.249 405.265C295.229 405.019 295.139 404.785 294.989 404.59C294.839 404.395 294.636 404.249 294.405 404.168C294.174 404.087 293.924 404.076 293.687 404.136C293.449 404.196 293.234 404.324 293.068 404.505C292.902 404.686 292.791 404.911 292.75 405.154C292.709 405.397 292.739 405.646 292.837 405.872C292.935 406.098 293.096 406.291 293.3 406.426C293.505 406.561 293.744 406.634 293.989 406.635C294.164 406.638 294.337 406.604 294.498 406.535C294.659 406.466 294.804 406.363 294.923 406.234C295.042 406.104 295.133 405.951 295.189 405.784C295.245 405.617 295.265 405.44 295.249 405.265Z" fill="black"/>
<path d="M302.775 402.762V406.922C302.821 407.296 302.78 407.675 302.656 408.031C302.531 408.386 302.327 408.707 302.058 408.97C301.79 409.232 301.464 409.428 301.107 409.542C300.751 409.656 300.373 409.686 300.003 409.628C299.139 409.661 298.286 409.418 297.567 408.934L298.138 407.903C298.629 408.256 299.215 408.451 299.818 408.461C300.826 408.461 301.28 408.004 301.28 407.108V406.888C301.079 407.099 300.835 407.263 300.566 407.371C300.296 407.479 300.007 407.528 299.717 407.514C299.386 407.542 299.053 407.5 298.738 407.392C298.424 407.284 298.135 407.111 297.89 406.884C297.646 406.658 297.45 406.383 297.317 406.076C297.183 405.77 297.114 405.439 297.114 405.104C297.114 404.77 297.183 404.439 297.317 404.132C297.45 403.826 297.646 403.551 297.89 403.324C298.135 403.098 298.424 402.925 298.738 402.817C299.053 402.708 299.386 402.667 299.717 402.695C300.033 402.669 300.351 402.72 300.643 402.844C300.936 402.968 301.194 403.16 301.397 403.405V402.762H302.775ZM301.364 405.113C301.369 404.943 301.339 404.775 301.275 404.618C301.211 404.461 301.114 404.32 300.992 404.203C300.87 404.087 300.725 403.997 300.566 403.941C300.407 403.885 300.238 403.864 300.07 403.878C299.898 403.858 299.724 403.874 299.559 403.927C299.394 403.979 299.241 404.066 299.112 404.182C298.983 404.298 298.879 404.44 298.808 404.599C298.737 404.758 298.7 404.93 298.7 405.104C298.7 405.279 298.737 405.451 298.808 405.61C298.879 405.769 298.983 405.911 299.112 406.027C299.241 406.143 299.394 406.229 299.559 406.282C299.724 406.334 299.898 406.351 300.07 406.33C300.236 406.345 300.404 406.323 300.562 406.268C300.719 406.213 300.864 406.126 300.986 406.011C301.108 405.896 301.204 405.757 301.269 405.602C301.335 405.447 301.367 405.281 301.364 405.113Z" fill="black"/>
<path d="M306.588 401.274C306.59 401.161 306.615 401.049 306.662 400.946C306.708 400.843 306.775 400.75 306.859 400.674C306.942 400.598 307.04 400.54 307.147 400.504C307.254 400.467 307.367 400.453 307.479 400.462C307.589 400.451 307.7 400.462 307.805 400.495C307.911 400.529 308.008 400.584 308.092 400.657C308.175 400.73 308.243 400.819 308.291 400.92C308.338 401.02 308.365 401.129 308.369 401.24C308.369 401.478 308.275 401.706 308.108 401.874C307.941 402.042 307.715 402.137 307.479 402.137C307.243 402.137 307.016 402.042 306.849 401.874C306.682 401.706 306.588 401.478 306.588 401.24V401.274ZM306.756 402.762H308.184V407.835H306.756V402.762Z" fill="black"/>
<path d="M314.551 404.825V407.683H313.123V405.062C313.123 404.25 312.754 403.878 312.115 403.878C311.477 403.878 310.923 404.301 310.923 405.214V407.683H309.495V402.61H310.872V403.202C311.089 402.977 311.351 402.802 311.641 402.688C311.931 402.574 312.242 402.524 312.552 402.542C312.842 402.528 313.132 402.579 313.4 402.693C313.668 402.806 313.906 402.979 314.099 403.199C314.291 403.418 314.431 403.678 314.51 403.96C314.588 404.242 314.602 404.537 314.551 404.825Z" fill="black"/>
</g>
<path d="M363.574 421.11H143.763V458.988H363.574V421.11Z" fill="#407BFF"/>
<path d="M225.276 445.933L222.588 442.027H221.782H218.59V445.967H216.742V432.997H221.782C225.142 432.997 227.141 434.688 227.141 437.529C227.183 438.429 226.93 439.318 226.42 440.057C225.909 440.797 225.171 441.347 224.318 441.621L227.376 445.967L225.276 445.933ZM225.276 437.478C225.276 435.618 224.05 434.57 221.681 434.57H218.556V440.404H221.681C223.999 440.421 225.226 439.339 225.226 437.495L225.276 437.478Z" fill="white"/>
<path d="M238.582 441.621H230.669C230.793 442.458 231.225 443.217 231.878 443.749C232.531 444.281 233.358 444.548 234.197 444.496C234.724 444.515 235.25 444.419 235.737 444.215C236.224 444.011 236.661 443.703 237.019 443.312L237.994 444.462C237.275 445.197 236.36 445.707 235.361 445.932C234.361 446.156 233.318 446.086 232.357 445.729C231.395 445.372 230.557 444.744 229.942 443.919C229.327 443.094 228.961 442.109 228.888 441.08C228.853 440.416 228.955 439.752 229.187 439.13C229.42 438.507 229.778 437.94 230.238 437.464C230.699 436.987 231.253 436.612 231.865 436.361C232.477 436.11 233.133 435.99 233.794 436.007C234.451 435.989 235.104 436.11 235.712 436.361C236.32 436.612 236.868 436.989 237.322 437.467C237.777 437.945 238.126 438.514 238.349 439.136C238.572 439.758 238.662 440.421 238.615 441.08C238.615 441.232 238.598 441.452 238.582 441.621ZM230.669 440.336H236.918C236.838 439.558 236.474 438.838 235.897 438.314C235.32 437.791 234.571 437.501 233.794 437.501C233.017 437.501 232.267 437.791 231.69 438.314C231.113 438.838 230.749 439.558 230.669 440.336Z" fill="white"/>
<path d="M250.409 436.126V444.581C250.409 448.047 248.645 449.654 245.369 449.654C243.697 449.726 242.053 449.212 240.716 448.199L241.556 446.83C242.631 447.67 243.958 448.117 245.319 448.098C247.62 448.098 248.679 447.033 248.679 444.801V444.023C248.244 444.525 247.703 444.922 247.095 445.186C246.487 445.449 245.829 445.572 245.168 445.545C243.916 445.545 242.715 445.044 241.829 444.153C240.944 443.262 240.447 442.053 240.447 440.793C240.447 439.533 240.944 438.324 241.829 437.433C242.715 436.542 243.916 436.041 245.168 436.041C245.859 436.02 246.546 436.162 247.173 436.456C247.8 436.749 248.35 437.186 248.78 437.732V436.21L250.409 436.126ZM248.729 440.776C248.766 440.1 248.601 439.429 248.255 438.849C247.909 438.269 247.398 437.807 246.788 437.522C246.178 437.237 245.498 437.143 244.834 437.252C244.171 437.361 243.555 437.667 243.066 438.132C242.578 438.597 242.239 439.198 242.094 439.859C241.948 440.519 242.003 441.209 242.251 441.837C242.499 442.466 242.929 443.006 243.485 443.386C244.041 443.767 244.697 443.971 245.369 443.972C245.799 443.998 246.23 443.934 246.634 443.784C247.038 443.634 247.407 443.402 247.718 443.102C248.029 442.802 248.274 442.44 248.44 442.04C248.605 441.64 248.686 441.209 248.679 440.776H248.729Z" fill="white"/>
<path d="M253.467 433.082C253.469 432.926 253.502 432.773 253.563 432.63C253.624 432.487 253.712 432.358 253.823 432.25C253.934 432.141 254.065 432.056 254.208 431.999C254.352 431.941 254.505 431.913 254.66 431.915C254.822 431.895 254.988 431.91 255.144 431.96C255.301 432.009 255.445 432.091 255.568 432.2C255.69 432.31 255.789 432.444 255.856 432.595C255.923 432.745 255.958 432.908 255.958 433.073C255.958 433.238 255.923 433.402 255.856 433.552C255.789 433.703 255.69 433.837 255.568 433.947C255.445 434.056 255.301 434.138 255.144 434.187C254.988 434.236 254.822 434.252 254.66 434.232C254.506 434.236 254.353 434.21 254.21 434.154C254.066 434.099 253.935 434.015 253.824 433.908C253.713 433.801 253.624 433.673 253.563 433.531C253.502 433.389 253.469 433.237 253.467 433.082ZM253.786 436.126H255.55V445.933H253.786V436.126Z" fill="white"/>
<path d="M257.684 444.902L258.423 443.498C259.424 444.153 260.59 444.505 261.783 444.513C263.463 444.513 264.101 444.006 264.101 443.177C264.101 440.979 257.936 442.89 257.936 438.967C257.936 437.276 259.498 436.024 262.001 436.024C263.241 436.004 264.463 436.314 265.546 436.921L264.79 438.324C263.951 437.793 262.975 437.522 261.984 437.546C260.439 437.546 259.683 438.121 259.683 438.899C259.683 441.216 265.865 439.322 265.865 443.143C265.865 444.834 264.185 446.052 261.648 446.052C260.243 446.073 258.863 445.673 257.684 444.902Z" fill="white"/>
<path d="M273.626 445.409C273.015 445.879 272.262 446.124 271.493 446.103C271.078 446.15 270.658 446.104 270.264 445.967C269.87 445.829 269.511 445.605 269.215 445.309C268.918 445.014 268.691 444.656 268.55 444.26C268.41 443.865 268.359 443.443 268.402 443.025V437.631H266.722V436.176H268.402V434.029H270.082V436.176H272.988V437.631H270.182V442.957C270.143 443.175 270.154 443.399 270.214 443.612C270.275 443.824 270.383 444.02 270.531 444.184C270.679 444.347 270.862 444.475 271.067 444.555C271.272 444.636 271.492 444.668 271.711 444.648C272.208 444.653 272.692 444.493 273.089 444.192L273.626 445.409Z" fill="white"/>
<path d="M284.211 441.622H276.348C276.473 442.461 276.907 443.223 277.563 443.755C278.22 444.288 279.052 444.552 279.893 444.496C280.418 444.516 280.941 444.421 281.426 444.216C281.91 444.012 282.345 443.703 282.699 443.313L283.673 444.462C282.956 445.199 282.043 445.711 281.044 445.936C280.044 446.162 279.001 446.092 278.04 445.735C277.08 445.377 276.242 444.747 275.629 443.922C275.016 443.096 274.653 442.109 274.584 441.08C274.549 440.416 274.651 439.752 274.884 439.13C275.116 438.507 275.474 437.94 275.935 437.464C276.395 436.987 276.949 436.612 277.561 436.361C278.173 436.111 278.83 435.99 279.49 436.007C280.146 435.992 280.798 436.114 281.405 436.366C282.012 436.619 282.559 436.996 283.013 437.473C283.467 437.95 283.816 438.518 284.04 439.139C284.264 439.76 284.356 440.421 284.312 441.08C284.294 441.263 284.26 441.445 284.211 441.622ZM276.348 440.336H282.615C282.518 439.569 282.146 438.863 281.569 438.352C280.993 437.84 280.25 437.558 279.482 437.558C278.713 437.558 277.971 437.84 277.394 438.352C276.817 438.863 276.445 439.569 276.348 440.336Z" fill="white"/>
<path d="M291.955 436.024V437.715H291.552C291.115 437.684 290.677 437.753 290.27 437.916C289.864 438.08 289.499 438.333 289.203 438.659C288.908 438.984 288.689 439.372 288.563 439.794C288.438 440.217 288.408 440.662 288.478 441.097V445.984H286.714V436.176H288.394V437.868C288.749 437.248 289.274 436.745 289.905 436.418C290.537 436.091 291.249 435.955 291.955 436.024Z" fill="white"/>
<g opacity="0.6">
<path d="M215.18 162.352L215.936 160.763C217.239 161.863 218.888 162.462 220.589 162.454C223.025 162.454 224.067 161.507 224.067 160.272C224.067 156.89 215.532 158.987 215.532 153.728C215.532 151.53 217.212 149.67 220.925 149.67C222.525 149.644 224.099 150.078 225.461 150.921L224.789 152.612C223.635 151.869 222.295 151.47 220.925 151.462C218.523 151.462 217.565 152.477 217.565 153.711C217.565 157.093 226.117 154.996 226.117 160.222C226.117 162.386 224.437 164.246 220.657 164.246C218.666 164.288 216.725 163.617 215.18 162.352Z" fill="#263238"/>
<path d="M228.368 149.89C228.37 149.719 228.406 149.551 228.473 149.395C228.54 149.239 228.637 149.098 228.759 148.98C228.881 148.862 229.025 148.769 229.183 148.708C229.341 148.646 229.509 148.617 229.678 148.621C229.845 148.615 230.011 148.641 230.168 148.7C230.325 148.758 230.468 148.848 230.59 148.963C230.712 149.077 230.81 149.216 230.878 149.369C230.947 149.522 230.984 149.688 230.988 149.856C230.988 150.206 230.85 150.541 230.605 150.788C230.359 151.036 230.026 151.175 229.678 151.175C229.331 151.175 228.997 151.036 228.751 150.788C228.506 150.541 228.368 150.206 228.368 149.856V149.89ZM228.704 153.272H230.652V164.026H228.704V153.272Z" fill="#263238"/>
<path d="M244.546 153.221V162.504C244.546 166.309 242.631 168.034 239.019 168.034C237.206 168.092 235.428 167.525 233.979 166.428L234.903 164.923C236.073 165.854 237.527 166.35 239.019 166.326C241.539 166.326 242.681 165.142 242.681 162.707V161.862C242.206 162.415 241.613 162.853 240.948 163.146C240.282 163.438 239.56 163.578 238.834 163.553C238.131 163.593 237.427 163.489 236.765 163.246C236.103 163.003 235.498 162.626 234.986 162.139C234.474 161.653 234.066 161.066 233.787 160.415C233.509 159.763 233.365 159.062 233.365 158.353C233.365 157.644 233.509 156.943 233.787 156.292C234.066 155.641 234.474 155.054 234.986 154.567C235.498 154.08 236.103 153.704 236.765 153.46C237.427 153.217 238.131 153.113 238.834 153.153C239.576 153.114 240.318 153.246 241.002 153.539C241.686 153.833 242.295 154.279 242.782 154.844V153.153L244.546 153.221ZM242.664 158.294C242.701 157.555 242.517 156.821 242.136 156.188C241.755 155.555 241.194 155.052 240.526 154.743C239.858 154.434 239.113 154.333 238.387 154.455C237.662 154.576 236.989 154.913 236.456 155.423C235.923 155.932 235.554 156.591 235.396 157.314C235.238 158.037 235.3 158.791 235.572 159.479C235.844 160.166 236.315 160.756 236.923 161.172C237.532 161.588 238.25 161.81 238.985 161.811C239.466 161.854 239.95 161.794 240.407 161.637C240.863 161.48 241.282 161.229 241.636 160.899C241.991 160.57 242.273 160.169 242.464 159.723C242.656 159.278 242.752 158.796 242.748 158.311L242.664 158.294Z" fill="#263238"/>
<path d="M258.389 157.787V163.976H256.44V157.939C256.44 155.825 255.399 154.794 253.567 154.794C253.102 154.763 252.636 154.836 252.202 155.007C251.768 155.178 251.376 155.444 251.056 155.784C250.735 156.125 250.493 156.532 250.346 156.978C250.199 157.423 250.152 157.896 250.207 158.362V163.908H248.275V153.153H250.14V154.844C250.599 154.271 251.188 153.818 251.858 153.524C252.528 153.229 253.258 153.102 253.987 153.153C254.593 153.112 255.201 153.206 255.767 153.427C256.334 153.648 256.845 153.992 257.264 154.434C257.684 154.876 258.003 155.405 258.197 155.985C258.391 156.564 258.457 157.179 258.389 157.787Z" fill="#263238"/>
<path d="M277.356 153.221V163.976H275.525V162.285C275.099 162.838 274.547 163.28 273.915 163.575C273.284 163.869 272.591 164.006 271.896 163.976C271.272 164.04 270.64 163.963 270.049 163.75C269.458 163.537 268.922 163.193 268.48 162.743C268.038 162.294 267.703 161.751 267.497 161.153C267.292 160.556 267.222 159.92 267.293 159.292V153.103H269.225V159.072C269.225 161.169 270.284 162.234 272.115 162.234C272.581 162.268 273.048 162.197 273.484 162.027C273.919 161.857 274.312 161.591 274.633 161.25C274.955 160.909 275.197 160.5 275.342 160.053C275.488 159.606 275.533 159.132 275.475 158.666V153.103L277.356 153.221Z" fill="#263238"/>
<path d="M292.107 158.598C292.145 159.324 292.032 160.05 291.775 160.73C291.518 161.41 291.124 162.028 290.616 162.545C290.108 163.062 289.499 163.467 288.827 163.734C288.155 164.001 287.436 164.123 286.714 164.094C286.005 164.122 285.299 163.984 284.651 163.69C284.004 163.397 283.434 162.956 282.984 162.403V167.95H281.052V153.272H282.9V154.963C283.344 154.374 283.922 153.902 284.586 153.587C285.25 153.272 285.98 153.123 286.714 153.153C287.432 153.122 288.148 153.242 288.818 153.504C289.487 153.767 290.095 154.167 290.602 154.68C291.11 155.192 291.505 155.805 291.764 156.48C292.023 157.154 292.14 157.876 292.107 158.598ZM290.158 158.598C290.125 157.891 289.887 157.21 289.473 156.638C289.059 156.066 288.488 155.628 287.83 155.38C287.172 155.131 286.456 155.082 285.77 155.239C285.084 155.395 284.46 155.751 283.973 156.262C283.486 156.772 283.159 157.415 283.031 158.111C282.903 158.807 282.981 159.525 283.255 160.177C283.529 160.829 283.987 161.385 284.572 161.778C285.156 162.171 285.843 162.382 286.546 162.386C287.036 162.397 287.523 162.304 287.976 162.116C288.429 161.927 288.838 161.646 289.177 161.29C289.517 160.934 289.779 160.511 289.948 160.048C290.117 159.584 290.188 159.091 290.158 158.598Z" fill="#263238"/>
</g>
<path d="M363.574 243.402H143.763V281.281H363.574V243.402Z" fill="white"/>
<g opacity="0.4">
<path d="M155.792 256.169H156.934V266.028H162.965V267.025H155.792V256.169Z" fill="#263238"/>
<path d="M170.777 261.969V267.042H169.735V265.774C169.43 266.226 169.011 266.59 168.521 266.827C168.032 267.065 167.489 267.168 166.947 267.127C165.115 267.127 163.99 266.163 163.99 264.743C163.99 263.322 164.779 262.443 167.115 262.443H169.685V261.952C169.685 260.549 168.895 259.788 167.383 259.788C166.402 259.775 165.448 260.117 164.695 260.752L164.191 259.923C165.151 259.175 166.339 258.787 167.551 258.824C167.979 258.772 168.412 258.817 168.82 258.955C169.228 259.093 169.6 259.321 169.909 259.622C170.218 259.924 170.457 260.291 170.607 260.697C170.757 261.103 170.815 261.538 170.777 261.969ZM169.685 264.573V263.238H167.148C165.569 263.238 165.065 263.863 165.065 264.709C165.065 265.554 165.821 266.231 167.115 266.231C167.662 266.264 168.206 266.122 168.668 265.824C169.13 265.526 169.486 265.088 169.685 264.573Z" fill="#263238"/>
<path d="M172.625 266.163L173.112 265.301C173.96 265.896 174.968 266.215 176.002 266.214C177.547 266.214 178.169 265.69 178.169 264.878C178.169 262.747 172.927 264.421 172.927 261.208C172.927 259.873 174.053 258.875 176.119 258.875C177.128 258.862 178.121 259.125 178.992 259.636L178.505 260.515C177.798 260.045 176.966 259.803 176.119 259.822C174.658 259.822 174.019 260.397 174.019 261.175C174.019 263.373 179.261 261.716 179.261 264.844C179.261 266.264 178.035 267.178 175.901 267.178C174.729 267.203 173.58 266.847 172.625 266.163Z" fill="#263238"/>
<path d="M185.628 266.535C185.151 266.916 184.557 267.119 183.948 267.11C183.629 267.145 183.305 267.107 183.002 266.999C182.699 266.892 182.424 266.717 182.197 266.489C181.969 266.26 181.796 265.983 181.689 265.678C181.582 265.373 181.545 265.047 181.579 264.726V259.805H180.118V258.875H181.579V257.082H182.671V258.875H185.124V259.805H182.671V264.675C182.643 264.87 182.658 265.069 182.717 265.256C182.775 265.444 182.876 265.616 183.01 265.759C183.144 265.903 183.309 266.013 183.492 266.083C183.675 266.153 183.871 266.18 184.066 266.163C184.507 266.176 184.937 266.026 185.275 265.74L185.628 266.535Z" fill="#263238"/>
<path d="M200.748 256.169V267.025H199.808L192.886 258.215V267.025H191.744V256.169H192.684L199.623 264.979V256.169H200.748Z" fill="#263238"/>
<path d="M210.223 261.969V267.042H209.148V265.774C208.845 266.229 208.426 266.594 207.936 266.832C207.446 267.07 206.902 267.172 206.359 267.127C204.528 267.127 203.402 266.163 203.402 264.743C203.402 263.322 204.209 262.443 206.544 262.443H209.148V261.952C209.148 260.549 208.358 259.788 206.846 259.788C205.865 259.775 204.911 260.117 204.158 260.752L203.654 259.923C204.612 259.171 205.801 258.782 207.014 258.824C207.44 258.775 207.872 258.821 208.278 258.961C208.684 259.1 209.054 259.329 209.361 259.63C209.668 259.931 209.905 260.297 210.054 260.702C210.203 261.106 210.261 261.539 210.223 261.969ZM209.131 264.573V263.238H206.578C205.015 263.238 204.511 263.863 204.511 264.709C204.511 265.554 205.267 266.231 206.561 266.231C207.111 266.268 207.659 266.128 208.125 265.829C208.59 265.531 208.949 265.091 209.148 264.573H209.131Z" fill="#263238"/>
<path d="M226.57 262.291V267.025H225.478V262.409C225.478 260.718 224.604 259.805 223.143 259.805C222.764 259.787 222.386 259.853 222.035 259.998C221.684 260.142 221.368 260.363 221.111 260.643C220.853 260.923 220.659 261.257 220.543 261.62C220.427 261.984 220.391 262.368 220.438 262.747V267.025H219.346V262.409C219.346 260.718 218.472 259.805 216.994 259.805C216.615 259.787 216.237 259.853 215.886 259.998C215.535 260.142 215.22 260.363 214.962 260.643C214.704 260.923 214.511 261.257 214.394 261.62C214.278 261.984 214.242 262.368 214.289 262.747V267.025H213.197V258.875H214.188V260.363C214.505 259.864 214.947 259.458 215.469 259.185C215.991 258.912 216.575 258.782 217.162 258.807C217.758 258.758 218.354 258.894 218.871 259.196C219.387 259.498 219.8 259.953 220.052 260.498C220.383 259.953 220.855 259.509 221.417 259.211C221.979 258.913 222.61 258.774 223.244 258.807C223.703 258.762 224.167 258.822 224.601 258.983C225.034 259.144 225.425 259.402 225.746 259.737C226.066 260.073 226.306 260.477 226.449 260.919C226.592 261.361 226.633 261.83 226.57 262.291Z" fill="#263238"/>
<path d="M236.633 263.288H229.913C229.937 263.686 230.038 264.075 230.211 264.433C230.385 264.792 230.626 265.112 230.923 265.376C231.22 265.64 231.565 265.842 231.939 265.972C232.314 266.101 232.71 266.154 233.105 266.129C233.572 266.144 234.036 266.057 234.465 265.873C234.895 265.689 235.279 265.413 235.592 265.064L236.196 265.774C235.614 266.386 234.866 266.812 234.045 266.998C233.223 267.185 232.366 267.123 231.579 266.822C230.792 266.521 230.111 265.993 229.621 265.304C229.13 264.616 228.852 263.797 228.821 262.95C228.793 262.412 228.876 261.873 229.063 261.368C229.251 260.863 229.539 260.402 229.911 260.013C230.283 259.625 230.73 259.318 231.224 259.11C231.719 258.903 232.25 258.799 232.786 258.807C233.321 258.797 233.852 258.898 234.346 259.105C234.84 259.312 235.286 259.62 235.656 260.009C236.025 260.399 236.31 260.861 236.493 261.368C236.676 261.874 236.752 262.413 236.717 262.95C236.65 263.052 236.633 263.17 236.633 263.288ZM229.913 262.477H235.659C235.659 261.71 235.356 260.974 234.817 260.432C234.279 259.89 233.548 259.585 232.786 259.585C232.024 259.585 231.293 259.89 230.755 260.432C230.216 260.974 229.913 261.71 229.913 262.477Z" fill="#263238"/>
</g>
<path d="M363.574 191.657H143.763V229.536H363.574V191.657Z" fill="white"/>
<g opacity="0.4">
<path d="M156.934 205.422V209.684H162.512V210.681H156.934V215.281H155.792V204.425H163.183V205.422H156.934Z" fill="#263238"/>
<path d="M164.914 204.543C164.91 204.381 164.955 204.222 165.043 204.086C165.13 203.95 165.256 203.843 165.404 203.78C165.552 203.716 165.715 203.698 165.873 203.729C166.031 203.76 166.176 203.838 166.29 203.952C166.404 204.067 166.481 204.213 166.512 204.372C166.542 204.531 166.525 204.696 166.462 204.845C166.399 204.993 166.293 205.12 166.158 205.208C166.022 205.296 165.864 205.341 165.703 205.338C165.494 205.338 165.293 205.254 165.145 205.105C164.997 204.956 164.914 204.754 164.914 204.543ZM165.149 207.13H166.241V215.281H165.149V207.13Z" fill="#263238"/>
<path d="M173.381 207.063V208.128H173.112C172.726 208.109 172.341 208.176 171.984 208.325C171.627 208.473 171.307 208.699 171.047 208.987C170.787 209.275 170.593 209.617 170.48 209.989C170.366 210.36 170.336 210.753 170.391 211.138V215.298H169.299V207.147H170.34V208.669C170.631 208.127 171.076 207.685 171.617 207.399C172.159 207.112 172.773 206.995 173.381 207.063Z" fill="#263238"/>
<path d="M174.288 214.351L174.775 213.471C175.615 214.084 176.628 214.41 177.665 214.401C179.21 214.401 179.832 213.86 179.832 213.066C179.832 210.935 174.59 212.609 174.59 209.379C174.59 208.06 175.716 207.062 177.782 207.062C178.792 207.04 179.787 207.304 180.655 207.823L180.168 208.703C179.461 208.233 178.629 207.991 177.782 208.009C176.321 208.009 175.682 208.584 175.682 209.362C175.682 211.561 180.924 209.903 180.924 213.032C180.924 214.435 179.698 215.348 177.564 215.348C176.394 215.379 175.245 215.029 174.288 214.351Z" fill="#263238"/>
<path d="M187.308 214.79C186.826 215.16 186.234 215.356 185.628 215.348C185.31 215.386 184.987 215.351 184.684 215.245C184.38 215.14 184.105 214.967 183.877 214.739C183.649 214.512 183.476 214.236 183.369 213.931C183.262 213.627 183.224 213.302 183.259 212.981V208.06H181.798V207.13H183.259V205.287H184.351V207.079H186.804V208.01H184.351V212.863C184.323 213.058 184.339 213.258 184.398 213.446C184.456 213.635 184.556 213.807 184.69 213.952C184.824 214.096 184.988 214.209 185.171 214.281C185.354 214.353 185.55 214.382 185.746 214.368C186.186 214.373 186.614 214.224 186.955 213.945L187.308 214.79Z" fill="#263238"/>
<path d="M202.428 204.425V215.281H201.487L194.566 206.471V215.281H193.423V204.425H194.364L201.303 213.235V204.425H202.428Z" fill="#263238"/>
<path d="M211.887 210.225V215.298H210.828V214.029C210.527 214.481 210.111 214.843 209.623 215.078C209.136 215.313 208.595 215.412 208.056 215.365C206.208 215.365 205.083 214.418 205.083 212.998C205.083 211.578 205.889 210.698 208.224 210.698H210.828V210.191C210.828 208.804 210.039 208.043 208.527 208.043C207.545 208.03 206.591 208.372 205.839 209.007L205.335 208.179C206.292 207.428 207.481 207.039 208.695 207.079C209.12 207.03 209.551 207.076 209.956 207.216C210.361 207.355 210.73 207.584 211.036 207.885C211.342 208.187 211.577 208.553 211.724 208.958C211.872 209.363 211.927 209.796 211.887 210.225ZM210.795 212.829V211.493H208.241C206.679 211.493 206.175 212.119 206.175 212.947C206.175 213.776 206.931 214.486 208.224 214.486C208.777 214.525 209.327 214.385 209.796 214.087C210.264 213.789 210.626 213.348 210.828 212.829H210.795Z" fill="#263238"/>
<path d="M228.233 210.546V215.281H227.141V210.664C227.141 208.973 226.268 208.06 224.806 208.06C224.427 208.042 224.049 208.108 223.698 208.253C223.347 208.398 223.031 208.618 222.774 208.898C222.516 209.179 222.323 209.512 222.206 209.876C222.09 210.239 222.054 210.624 222.101 211.003V215.281H221.009V210.664C221.009 208.973 220.136 208.06 218.657 208.06C218.278 208.042 217.9 208.108 217.549 208.253C217.198 208.398 216.883 208.618 216.625 208.898C216.367 209.179 216.174 209.512 216.058 209.876C215.941 210.239 215.905 210.624 215.952 211.003V215.281H214.86V207.13H215.868V208.669C216.185 208.17 216.627 207.764 217.149 207.491C217.671 207.218 218.254 207.088 218.842 207.113C219.438 207.064 220.034 207.2 220.551 207.502C221.067 207.804 221.479 208.259 221.732 208.804C222.061 208.257 222.532 207.81 223.094 207.512C223.656 207.214 224.289 207.076 224.924 207.113C225.377 207.072 225.834 207.134 226.261 207.293C226.688 207.453 227.074 207.706 227.392 208.035C227.709 208.364 227.949 208.76 228.095 209.195C228.24 209.629 228.288 210.091 228.233 210.546Z" fill="#263238"/>
<path d="M238.296 211.544H231.576C231.6 211.941 231.701 212.331 231.874 212.689C232.048 213.047 232.29 213.367 232.586 213.631C232.883 213.895 233.228 214.098 233.603 214.227C233.977 214.356 234.373 214.41 234.768 214.385C235.236 214.4 235.702 214.311 236.132 214.124C236.562 213.937 236.945 213.656 237.255 213.302L237.859 214.029C237.277 214.641 236.529 215.067 235.708 215.254C234.886 215.44 234.029 215.379 233.242 215.077C232.455 214.776 231.774 214.248 231.284 213.56C230.793 212.871 230.515 212.052 230.484 211.205C230.457 210.667 230.539 210.128 230.727 209.623C230.914 209.118 231.203 208.657 231.574 208.269C231.946 207.88 232.393 207.573 232.887 207.365C233.382 207.158 233.913 207.055 234.449 207.063C234.984 207.052 235.515 207.153 236.009 207.36C236.503 207.567 236.949 207.875 237.319 208.265C237.688 208.654 237.973 209.117 238.156 209.623C238.339 210.129 238.415 210.668 238.38 211.205C238.313 211.29 238.296 211.408 238.296 211.544ZM231.576 210.715H237.322C237.322 209.948 237.019 209.213 236.48 208.67C235.942 208.128 235.211 207.823 234.449 207.823C233.687 207.823 232.956 208.128 232.418 208.67C231.879 209.213 231.576 209.948 231.576 210.715Z" fill="#263238"/>
</g>
<path d="M61.0564 513.523H59.4604C59.4604 511.139 61.426 455.268 71.086 445.883C81.0148 436.159 92.6909 445.747 92.7917 445.883L91.7836 447.1C91.3468 446.745 81.0821 438.358 72.178 447.1C62.9884 455.91 61.0732 512.948 61.0564 513.523Z" fill="#407BFF"/>
<path d="M60.2499 524.734L58.6707 524.582C58.6707 523.906 64.9203 456.739 40.7451 428.804L41.9379 427.755C66.5667 456.215 60.3171 524.058 60.2499 524.734Z" fill="#407BFF"/>
<path d="M61.0228 517.564C60.8212 514.385 56.1676 439.778 74.7484 422.53L75.8236 423.714C57.7972 440.387 62.5516 516.719 62.602 517.446L61.0228 517.564Z" fill="#407BFF"/>
<path d="M58.6709 517.514C58.6709 517.006 58.0997 466.784 44.8781 459.225C43.754 458.479 42.4683 458.015 41.1292 457.874C39.7901 457.733 38.4369 457.918 37.1837 458.413C29.4389 461.643 25.3229 476.524 25.2725 476.676L23.7437 476.253C23.9117 475.611 28.1117 460.476 36.5789 456.942C38.0539 456.345 39.65 456.116 41.2321 456.272C42.8142 456.428 44.3356 456.965 45.6677 457.838C59.6621 465.904 60.25 515.332 60.2668 517.497L58.6709 517.514Z" fill="#407BFF"/>
<path d="M64.114 517.547C64.0132 515.856 61.9804 477.91 72.682 463.824C75.538 460.087 78.6964 458.312 82.1236 458.565C89.734 459.089 95.5636 469.472 95.8828 469.912L94.5052 470.707C94.5052 470.605 88.7596 460.561 82.006 460.155C79.1668 459.935 76.4452 461.508 73.942 464.805C63.5932 478.333 65.6764 517.074 65.6932 517.463L64.114 517.547Z" fill="#407BFF"/>
<path d="M61.9804 522.806L60.4012 522.688C60.4012 521.775 67.1212 431.171 56.0332 416.053L57.31 415.106C68.7676 430.697 62.266 519.052 61.9804 522.806Z" fill="#407BFF"/>
<path d="M33.5043 465.955C33.5043 465.955 40.3588 468.508 38.326 474.511C36.2931 480.514 14.5876 490.407 14.5876 490.407C14.5876 490.407 5.49875 482.036 13.8484 468.424C22.198 454.811 33.3195 461.66 33.5043 465.955Z" fill="#407BFF"/>
<path opacity="0.2" d="M33.5043 465.955C33.5043 465.955 40.3588 468.508 38.326 474.511C36.2931 480.514 14.5876 490.407 14.5876 490.407C14.5876 490.407 5.49875 482.036 13.8484 468.424C22.198 454.811 33.3195 461.66 33.5043 465.955Z" fill="black"/>
<path d="M63.3244 454.524C63.3244 454.524 56.0164 454.219 55.5964 460.544C55.1764 466.868 71.3884 484.421 71.3884 484.421C71.3884 484.421 82.9804 480.193 80.494 464.382C78.0076 448.571 65.1388 450.618 63.3244 454.524Z" fill="#407BFF"/>
<path opacity="0.2" d="M63.3244 454.524C63.3244 454.524 56.0164 454.219 55.5964 460.544C55.1764 466.868 71.3884 484.421 71.3884 484.421C71.3884 484.421 82.9804 480.193 80.494 464.382C78.0076 448.571 65.1388 450.618 63.3244 454.524Z" fill="black"/>
<path d="M69.5069 424.187C69.5069 424.187 64.6349 423.663 65.0213 420.687C65.4077 417.711 83.9549 410.017 94.8917 422.378C94.8917 422.378 87.8861 434.485 77.7725 434.654C67.6589 434.824 69.5069 424.187 69.5069 424.187Z" fill="#407BFF"/>
<path opacity="0.2" d="M69.5069 424.187C69.5069 424.187 64.6349 423.663 65.0213 420.687C65.4077 417.711 83.9549 410.017 94.8917 422.378C94.8917 422.378 87.8861 434.485 77.7725 434.654C67.6589 434.824 69.5069 424.187 69.5069 424.187Z" fill="black"/>
<path d="M60.4351 416.933C60.4351 416.933 64.8367 419.08 66.0799 416.341C67.3231 413.601 55.6135 397.216 39.8047 401.934C39.8047 401.934 39.3847 415.935 47.8855 421.465C56.3863 426.994 60.4351 416.933 60.4351 416.933Z" fill="#407BFF"/>
<path opacity="0.2" d="M60.4351 416.933C60.4351 416.933 64.8367 419.08 66.0799 416.341C67.3231 413.601 55.6135 397.216 39.8047 401.934C39.8047 401.934 39.3847 415.935 47.8855 421.465C56.3863 426.994 60.4351 416.933 60.4351 416.933Z" fill="black"/>
<path d="M83.4843 463.554C83.4843 463.554 80.1243 460.814 83.7531 459.478C87.3819 458.143 105.173 458.531 105.358 476.27C105.358 476.27 84.6267 479.737 82.0731 472.973C79.5195 466.209 83.4843 463.554 83.4843 463.554Z" fill="#407BFF"/>
<path opacity="0.2" d="M83.4843 463.554C83.4843 463.554 80.1243 460.814 83.7531 459.478C87.3819 458.143 105.173 458.531 105.358 476.27C105.358 476.27 84.6267 479.737 82.0731 472.973C79.5195 466.209 83.4843 463.554 83.4843 463.554Z" fill="black"/>
<path d="M41.1485 423.747C41.1485 423.747 44.5085 421.008 40.8797 419.689C37.2509 418.37 19.4597 418.725 19.2749 436.464C19.2749 436.464 40.0061 439.947 42.5597 433.183C45.1133 426.419 41.1485 423.747 41.1485 423.747Z" fill="#407BFF"/>
<path opacity="0.2" d="M41.1485 423.747C41.1485 423.747 44.5085 421.008 40.8797 419.689C37.2509 418.37 19.4597 418.725 19.2749 436.464C19.2749 436.464 40.0061 439.947 42.5597 433.183C45.1133 426.419 41.1485 423.747 41.1485 423.747Z" fill="black"/>
<path d="M52.1694 438.036C52.1694 438.036 52.4718 434.654 49.8006 436.024C47.1294 437.394 37.8726 447.405 47.4822 456.959C47.4822 456.959 60.435 447.303 58.0998 442.281C55.7646 437.259 52.1694 438.036 52.1694 438.036Z" fill="#407BFF"/>
<path opacity="0.2" d="M52.1694 438.036C52.1694 438.036 52.4718 434.654 49.8006 436.024C47.1294 437.394 37.8726 447.405 47.4822 456.959C47.4822 456.959 60.435 447.303 58.0998 442.281C55.7646 437.259 52.1694 438.036 52.1694 438.036Z" fill="black"/>
<path d="M86.5086 442.771C86.5086 442.771 84.4926 440.116 87.4494 439.795C90.4062 439.474 103.577 443.008 100.503 456.266C100.503 456.266 84.4422 455.048 83.703 449.502C82.9638 443.955 86.5086 442.771 86.5086 442.771Z" fill="#407BFF"/>
<path opacity="0.2" d="M86.5086 442.771C86.5086 442.771 84.4926 440.116 87.4494 439.795C90.4062 439.474 103.577 443.008 100.503 456.266C100.503 456.266 84.4422 455.048 83.703 449.502C82.9638 443.955 86.5086 442.771 86.5086 442.771Z" fill="black"/>
<path d="M34.6973 566.688H86.6261L93.5309 515.856H27.7925L34.6973 566.688Z" fill="#263238"/>
<path opacity="0.2" d="M34.6973 566.688H86.6261L93.5309 515.856H27.7925L34.6973 566.688Z" fill="white"/>
<path d="M100.049 511.73V516.567C100.049 518.118 99.4369 519.607 98.3468 520.704C97.2567 521.801 95.7782 522.417 94.2365 522.417H26.4485C24.9069 522.417 23.4284 521.801 22.3383 520.704C21.2482 519.607 20.6357 518.118 20.6357 516.567V511.73H100.049Z" fill="#263238"/>
<path d="M532.75 29.9468H484.484C480.545 29.9468 476.767 31.5217 473.982 34.3251C471.197 37.1284 469.632 40.9306 469.632 44.8952V87.1703C469.63 89.1348 470.013 91.0804 470.758 92.896C471.503 94.7116 472.597 96.3615 473.976 97.7514C475.356 99.1413 476.993 100.244 478.796 100.996C480.599 101.748 482.532 102.136 484.484 102.136H498.579L495.219 115.478L508.659 102.136H532.834C536.777 102.136 540.559 100.559 543.347 97.7524C546.135 94.9459 547.702 91.1393 547.702 87.1703V44.8952C547.702 42.9236 547.315 40.9714 546.562 39.1512C545.809 37.3309 544.706 35.6785 543.317 34.289C541.927 32.8996 540.278 31.8006 538.464 31.0554C536.651 30.3102 534.709 29.9334 532.75 29.9468Z" fill="#407BFF"/>
<path opacity="0.7" d="M532.75 29.9468H484.484C480.545 29.9468 476.767 31.5217 473.982 34.3251C471.197 37.1284 469.632 40.9306 469.632 44.8952V87.1703C469.63 89.1348 470.013 91.0804 470.758 92.896C471.503 94.7116 472.597 96.3615 473.976 97.7514C475.356 99.1413 476.993 100.244 478.796 100.996C480.599 101.748 482.532 102.136 484.484 102.136H498.579L495.219 115.478L508.659 102.136H532.834C536.777 102.136 540.559 100.559 543.347 97.7524C546.135 94.9459 547.702 91.1393 547.702 87.1703V44.8952C547.702 42.9236 547.315 40.9714 546.562 39.1512C545.809 37.3309 544.706 35.6785 543.317 34.289C541.927 32.8996 540.278 31.8006 538.464 31.0554C536.651 30.3102 534.709 29.9334 532.75 29.9468Z" fill="white"/>
<path d="M508.625 84.7184C518.971 84.7184 527.357 76.2769 527.357 65.8637C527.357 55.4506 518.971 47.009 508.625 47.009C498.28 47.009 489.893 55.4506 489.893 65.8637C489.893 76.2769 498.28 84.7184 508.625 84.7184Z" fill="white"/>
<path d="M508.625 41.75C503.887 41.75 499.255 43.1643 495.315 45.8139C491.375 48.4635 488.305 52.2296 486.492 56.6358C484.678 61.042 484.204 65.8904 485.128 70.568C486.053 75.2456 488.334 79.5423 491.685 82.9147C495.035 86.287 499.304 88.5836 503.951 89.5141C508.598 90.4445 513.415 89.967 517.793 88.1418C522.17 86.3167 525.912 83.226 528.544 79.2606C531.177 75.2951 532.582 70.6329 532.582 65.8637C532.584 62.6964 531.966 59.5598 530.762 56.6332C529.559 53.7065 527.795 51.0474 525.57 48.8078C523.345 46.5682 520.703 44.7921 517.795 43.581C514.888 42.37 511.771 41.7478 508.625 41.75ZM522.216 58.66L507.785 75.773C507.58 76.0203 507.323 76.2184 507.032 76.353C506.741 76.4875 506.425 76.5551 506.105 76.5508C505.785 76.5528 505.469 76.4841 505.179 76.3497C504.889 76.2153 504.631 76.0184 504.425 75.773L495.034 64.6293C494.835 64.4089 494.683 64.1506 494.586 63.8698C494.489 63.5889 494.449 63.2912 494.468 62.9945C494.488 62.6978 494.567 62.408 494.7 62.1426C494.833 61.8772 495.018 61.6415 495.244 61.4495C495.469 61.2576 495.731 61.1133 496.013 61.0254C496.296 60.9375 496.593 60.9076 496.887 60.9377C497.18 60.9677 497.465 61.057 497.724 61.2003C497.983 61.3435 498.211 61.5378 498.394 61.7715L506.105 70.9198L518.856 55.8022C519.239 55.3768 519.771 55.1178 520.341 55.0796C520.91 55.0415 521.471 55.2274 521.907 55.5979C522.343 55.9685 522.619 56.4949 522.676 57.0662C522.734 57.6374 522.569 58.2088 522.216 58.66Z" fill="#407BFF"/>
<path d="M524.384 290.784C524.384 290.784 495.135 287.064 450.816 299.239C450.816 299.239 443.693 219.525 444.533 208.567C445.373 197.61 512.96 200.823 512.96 200.823C512.96 200.823 514.64 232.732 519.041 251.975C523.443 271.219 526.668 287.081 524.384 290.784Z" fill="#407BFF"/>
<path opacity="0.2" d="M524.384 290.784C524.384 290.784 495.135 287.064 450.816 299.239C450.816 299.239 443.693 219.525 444.533 208.567C445.373 197.61 512.96 200.823 512.96 200.823C512.96 200.823 514.64 232.732 519.041 251.975C523.443 271.219 526.668 287.081 524.384 290.784Z" fill="black"/>
<path d="M429.447 554.682L441.375 558.081L444.214 539.395L445.743 529.401L433.815 526.002L431.782 539.395L429.447 554.682Z" fill="#FEBCB4"/>
<path d="M498.024 555.663L510.322 557.303L510.44 539.395L510.524 528.268L498.209 526.645L498.125 539.395L498.024 555.663Z" fill="#FEBCB4"/>
<path opacity="0.2" d="M498.209 526.645L498.125 539.395H510.44L510.524 528.268L498.209 526.645Z" fill="black"/>
<path opacity="0.2" d="M431.782 539.395H444.214L445.743 529.401L433.815 526.002L431.782 539.395Z" fill="black"/>
<path d="M376.493 215.112L364.649 211.594L366.816 225.207C366.816 225.207 377.568 227.693 378.576 222.062L376.493 215.112Z" fill="#FEBCB4"/>
<path d="M352.822 214.756L358.635 225.816L366.817 225.207L364.649 211.594L352.822 214.756Z" fill="#FEBCB4"/>
<path d="M392.84 218.595L373.385 214.215L371.621 223.719L389.278 228.048L392.84 218.595Z" fill="#FEBCB4"/>
<path d="M451.69 210.005L450.548 211.374C448.095 214.266 442.148 221.25 435.948 227.27C430.908 232.174 425.868 236.452 422.508 237.314C412.983 239.783 378.358 229.519 378.358 229.519L381.936 215.382C381.936 215.382 414.192 219.694 416.696 219.694C418.594 219.694 438.216 191.082 442.971 188.732L451.69 210.005Z" fill="#407BFF"/>
<path opacity="0.2" d="M450.548 211.374C448.095 214.266 442.148 221.25 435.949 227.27C437.192 217.361 440.804 208.263 445.558 202.514C446.002 201.959 446.509 201.459 447.07 201.026L450.548 211.374Z" fill="black"/>
<path d="M429.598 552.805L443.139 552.45C443.383 552.442 443.623 552.518 443.818 552.666C444.014 552.813 444.153 553.023 444.214 553.261L447.07 564.236C447.138 564.499 447.147 564.774 447.095 565.04C447.044 565.307 446.933 565.558 446.772 565.776C446.61 565.993 446.402 566.172 446.163 566.297C445.924 566.423 445.66 566.493 445.39 566.502C440.501 566.502 433.429 566.502 427.297 566.62C420.106 566.823 415.537 566.468 407.137 566.62C402.097 566.756 400.417 561.649 402.567 561.124C412.193 558.723 418.493 559.197 426.692 553.786C427.557 553.205 428.56 552.867 429.598 552.805Z" fill="#263238"/>
<path d="M428.422 554.563C426.44 555.003 422.912 555.595 421.5 554.428C421.295 554.257 421.133 554.039 421.027 553.792C420.922 553.545 420.877 553.276 420.896 553.008C420.895 552.847 420.937 552.688 421.016 552.549C421.096 552.409 421.211 552.293 421.349 552.213C422.844 551.317 427.901 553.735 428.489 554.005C428.541 554.033 428.584 554.075 428.613 554.126C428.643 554.176 428.658 554.234 428.657 554.293C428.654 554.358 428.63 554.421 428.587 554.47C428.544 554.519 428.486 554.552 428.422 554.563ZM421.702 552.686H421.601C421.545 552.719 421.499 552.766 421.466 552.822C421.434 552.879 421.417 552.943 421.416 553.008C421.402 553.183 421.43 553.358 421.497 553.52C421.565 553.682 421.669 553.825 421.803 553.938C422.592 554.597 424.642 554.665 427.364 554.124C425.398 553.295 422.66 552.331 421.736 552.686H421.702Z" fill="#407BFF"/>
<path d="M428.422 554.563H428.22C426.692 553.921 423.634 551.317 423.802 549.913C423.802 549.575 424.071 549.152 424.877 549.051C425.173 549.012 425.474 549.032 425.763 549.11C426.051 549.189 426.321 549.324 426.557 549.507C428.237 550.776 428.624 554.107 428.657 554.242C428.662 554.294 428.654 554.345 428.633 554.393C428.613 554.44 428.58 554.481 428.54 554.513L428.422 554.563ZM424.659 549.71C424.407 549.795 424.39 549.93 424.39 549.981C424.289 550.826 426.372 552.889 427.935 553.769C427.755 552.348 427.131 551.022 426.154 549.981C425.988 549.841 425.794 549.738 425.586 549.679C425.377 549.621 425.158 549.609 424.944 549.643C424.847 549.651 424.75 549.674 424.659 549.71Z" fill="#407BFF"/>
<path d="M498.511 552.805L512.052 552.45C512.299 552.441 512.541 552.517 512.739 552.664C512.937 552.811 513.08 553.022 513.144 553.261L515.983 564.236C516.055 564.499 516.066 564.775 516.016 565.043C515.966 565.311 515.855 565.563 515.693 565.782C515.531 566 515.322 566.179 515.081 566.304C514.84 566.428 514.574 566.496 514.303 566.502C509.415 566.502 502.342 566.502 496.193 566.62C489.019 566.823 484.433 566.468 476.033 566.62C470.993 566.756 469.313 561.649 471.463 561.124C481.09 558.723 487.373 559.197 495.571 553.786C496.446 553.199 497.462 552.861 498.511 552.805Z" fill="#263238"/>
<path d="M497.352 554.563C495.37 555.003 491.825 555.595 490.431 554.428C490.225 554.257 490.063 554.039 489.958 553.792C489.852 553.545 489.807 553.276 489.826 553.008C489.825 552.847 489.867 552.688 489.946 552.549C490.026 552.409 490.141 552.293 490.279 552.213C491.758 551.317 496.831 553.735 497.403 554.005C497.459 554.028 497.505 554.068 497.536 554.12C497.566 554.172 497.579 554.233 497.571 554.293C497.566 554.355 497.543 554.414 497.504 554.463C497.465 554.511 497.412 554.546 497.352 554.563ZM490.632 552.686H490.531C490.476 552.718 490.431 552.766 490.401 552.822C490.371 552.879 490.358 552.944 490.363 553.008C490.347 553.183 490.373 553.359 490.44 553.522C490.508 553.684 490.614 553.827 490.75 553.938C491.539 554.597 493.572 554.665 496.311 554.124C494.311 553.295 491.573 552.331 490.649 552.686H490.632Z" fill="#407BFF"/>
<path d="M497.353 554.563H497.134C495.622 553.921 492.548 551.317 492.733 549.913C492.733 549.575 492.985 549.152 493.791 549.051C494.087 549.01 494.388 549.029 494.677 549.108C494.966 549.186 495.236 549.322 495.471 549.507C496.646 550.825 497.381 552.481 497.571 554.242C497.58 554.294 497.573 554.347 497.552 554.395C497.531 554.443 497.497 554.484 497.453 554.513L497.353 554.563ZM493.573 549.71C493.337 549.795 493.321 549.93 493.321 549.981C493.203 550.826 495.303 552.889 496.865 553.769C496.673 552.352 496.051 551.029 495.085 549.981C494.918 549.841 494.724 549.739 494.516 549.681C494.307 549.623 494.089 549.61 493.875 549.643L493.573 549.71Z" fill="#407BFF"/>
<path d="M523.393 283.513C529.911 311.938 518.722 535.573 518.722 535.573H497.117L487.877 349.208L453.857 535.573L430.757 533.882C445.877 389.505 459.2 303.314 459.2 303.314V292.424L523.393 283.513Z" fill="#263238"/>
<path opacity="0.4" d="M430.757 533.882L453.857 535.573L480.637 388.862L487.877 349.208L497.117 535.573H518.722C518.722 535.573 529.911 311.938 523.393 283.513L459.166 292.424V303.314C459.166 303.314 445.861 389.505 430.757 533.882Z" fill="white"/>
<path d="M511.75 178.231C511.088 191.822 511.43 205.444 512.775 218.984C513.682 228.453 514.925 237.399 516.253 245.465C519.361 264.387 522.889 278.575 523.393 283.529L459.166 292.441C435.747 226.492 444.567 188.174 444.567 188.174C449.369 186.178 454.29 184.484 459.301 183.101C460.359 182.813 461.434 182.543 462.543 182.289C471.564 180.502 480.678 179.238 489.843 178.501C491.523 178.349 493.354 178.231 495.068 178.146C503.837 177.706 511.75 178.231 511.75 178.231Z" fill="#263238"/>
<path d="M477.377 148.554C477.848 157.6 478.805 174.578 486.281 178.89C486.281 178.89 481.628 187.802 471.564 188.715C463.954 189.391 464.458 181.833 464.458 181.833C468.86 178.535 467.818 172.938 464.458 166.614L477.377 148.554Z" fill="#FEBCB4"/>
<path opacity="0.2" d="M472.102 155.926L464.508 166.614C465.308 168.075 465.982 169.603 466.524 171.179C470.052 169.759 474.101 164.415 473.513 160.543C473.329 158.93 472.851 157.365 472.102 155.926Z" fill="black"/>
<path d="M444.617 130.341C443.155 135.042 443.962 144.681 450.463 141.553C456.965 138.424 447.137 122.275 444.617 130.341Z" fill="#263238"/>
<path d="M478.217 136.7C478.939 148.757 479.897 155.774 474.672 162.606C466.726 172.87 451.337 169.049 447.036 157.414C443.172 146.93 442.652 128.972 453.756 122.884C456.218 121.536 458.979 120.839 461.781 120.857C464.583 120.876 467.335 121.609 469.779 122.99C472.223 124.37 474.279 126.352 475.754 128.749C477.23 131.147 478.078 133.883 478.217 136.7Z" fill="#FEBCB4"/>
<path d="M469.817 130.139V116.611C469.817 116.611 484.064 115.545 483.425 122.884C491.321 126.824 487.592 139.185 476.991 145.239C471.178 140.555 471.85 129.293 471.85 129.293C471.229 129.614 470.523 129.885 469.817 130.139Z" fill="#263238"/>
<path d="M484.013 146.102C483.738 147.577 483.173 148.981 482.351 150.233C481.529 151.485 480.466 152.558 479.225 153.39C475.865 155.605 472.959 152.883 472.841 149.078C472.74 145.696 474.336 140.352 478.2 139.676C479.045 139.543 479.91 139.624 480.717 139.91C481.524 140.196 482.247 140.679 482.823 141.315C483.399 141.952 483.809 142.722 484.017 143.558C484.224 144.393 484.223 145.267 484.013 146.102Z" fill="#FEBCB4"/>
<path d="M460.527 142.077C460.645 143.058 460.225 143.903 459.586 143.971C458.948 144.039 458.343 143.312 458.225 142.28C458.108 141.249 458.528 140.454 459.149 140.386C459.771 140.319 460.409 141.029 460.527 142.077Z" fill="#263238"/>
<path d="M449.54 143.312C449.657 144.292 449.237 145.138 448.599 145.205C447.96 145.273 447.356 144.546 447.238 143.514C447.12 142.483 447.54 141.688 448.179 141.621C448.817 141.553 449.388 142.331 449.54 143.312Z" fill="#263238"/>
<path d="M453.085 143.396C452.236 146.42 450.975 149.311 449.338 151.986C450.063 152.361 450.858 152.578 451.672 152.621C452.485 152.665 453.299 152.535 454.059 152.24L453.085 143.396Z" fill="#F2A19C"/>
<path d="M459.72 155.385C459.306 155.492 458.885 155.571 458.46 155.622C458.385 155.622 458.312 155.592 458.258 155.538C458.205 155.484 458.175 155.411 458.175 155.335C458.175 155.258 458.205 155.185 458.258 155.131C458.312 155.077 458.385 155.047 458.46 155.047C459.667 154.937 460.831 154.543 461.858 153.897C462.885 153.25 463.747 152.37 464.374 151.327C464.388 151.293 464.41 151.262 464.436 151.236C464.463 151.211 464.495 151.191 464.53 151.178C464.564 151.166 464.601 151.16 464.638 151.163C464.675 151.165 464.711 151.175 464.744 151.192C464.778 151.208 464.809 151.231 464.835 151.259C464.86 151.288 464.88 151.321 464.892 151.358C464.905 151.394 464.91 151.432 464.908 151.471C464.905 151.509 464.895 151.546 464.878 151.581C464.329 152.541 463.586 153.376 462.698 154.031C461.81 154.686 460.796 155.147 459.72 155.385Z" fill="#263238"/>
<path d="M463.484 138.137C463.382 138.161 463.276 138.158 463.176 138.128C463.076 138.099 462.985 138.043 462.912 137.968C462.426 137.431 461.822 137.016 461.148 136.755C460.475 136.494 459.75 136.394 459.031 136.463C458.957 136.48 458.881 136.482 458.806 136.468C458.731 136.454 458.66 136.425 458.597 136.382C458.534 136.339 458.48 136.283 458.439 136.219C458.399 136.154 458.371 136.082 458.359 136.006C458.345 135.932 458.345 135.855 458.36 135.781C458.375 135.707 458.404 135.636 458.446 135.573C458.489 135.51 458.543 135.456 458.606 135.415C458.669 135.373 458.739 135.344 458.813 135.33C459.72 135.221 460.64 135.332 461.496 135.652C462.352 135.973 463.12 136.494 463.736 137.173C463.79 137.225 463.834 137.288 463.864 137.358C463.894 137.428 463.909 137.503 463.909 137.579C463.909 137.655 463.894 137.73 463.864 137.8C463.834 137.87 463.79 137.933 463.736 137.985C463.664 138.054 463.578 138.106 463.484 138.137Z" fill="#263238"/>
<path d="M444.348 140.048C444.24 140.09 444.121 140.09 444.012 140.048C443.87 139.998 443.753 139.894 443.687 139.757C443.621 139.621 443.611 139.464 443.66 139.321C443.937 138.45 444.42 137.661 445.066 137.019C445.713 136.377 446.504 135.902 447.372 135.634C447.519 135.596 447.675 135.619 447.806 135.696C447.937 135.774 448.032 135.901 448.07 136.049C448.107 136.197 448.085 136.354 448.008 136.485C447.931 136.617 447.805 136.712 447.658 136.75C446.971 136.964 446.347 137.343 445.84 137.856C445.333 138.37 444.959 139 444.752 139.693C444.72 139.782 444.666 139.861 444.595 139.923C444.525 139.985 444.44 140.028 444.348 140.048Z" fill="#263238"/>
<path d="M476.134 135.144C476.134 135.144 467.734 132.049 463.904 127.146C463.904 127.146 456.276 129.158 454.714 132.219C454.001 131.604 453.54 130.745 453.419 129.809C453.298 128.872 453.526 127.923 454.059 127.146C454.059 127.146 448.347 128.363 447.221 132.219C446.293 131.774 445.531 131.041 445.047 130.128C444.563 129.215 444.383 128.169 444.533 127.146C444.533 127.146 441.996 128.109 441.173 132.219C441.173 132.219 434.873 118.995 455.688 115.207C454.113 114.669 452.463 114.389 450.8 114.378C450.8 114.378 465.332 108.477 476.84 113.871C488.348 119.265 486.348 129.716 476.134 135.144Z" fill="#263238"/>
<path d="M528.348 294.91L508.188 297.616C508.188 297.616 499.872 239.124 496.21 220.235V179.922L506.744 177.132L514.908 179.922C517.148 188.032 518.87 196.279 520.066 204.61C521.057 210.935 521.948 217.699 522.737 224.547C523.829 233.882 524.736 243.385 525.509 252.28C526.719 266.636 527.525 279.336 527.962 287.097C528.214 291.968 528.348 294.91 528.348 294.91Z" fill="#407BFF"/>
<path d="M496.227 220.201C496.227 220.201 497.907 191.742 506.761 177.064C506.761 177.064 506.542 172.87 504.778 172.194C503.014 171.517 496.227 175.576 496.227 175.576C496.227 175.576 492.01 172.667 491.086 174.02C490.162 175.373 487.911 184.369 496.227 220.201Z" fill="#407BFF"/>
<path opacity="0.7" d="M496.227 220.201C496.227 220.201 497.907 191.742 506.761 177.064C506.761 177.064 506.542 172.87 504.778 172.194C503.014 171.517 496.227 175.576 496.227 175.576C496.227 175.576 492.01 172.667 491.086 174.02C490.162 175.373 487.911 184.369 496.227 220.201Z" fill="white"/>
<path d="M450.397 302.705L452.698 304.396C452.698 304.396 449.338 285.542 450.716 237.855C450.716 235.556 450.867 233.341 450.951 231.227C452.631 190.879 458.881 183.54 459.351 183.101L453.538 185.096L443.005 188.749C439.829 223.161 450.397 302.705 450.397 302.705Z" fill="#407BFF"/>
<path d="M451.304 224.277C451.304 224.277 445.491 196.612 447.221 187.075C448.952 177.537 455.151 181.782 455.151 181.782C455.151 181.782 460.846 177.149 462.543 182.255C462.543 182.255 454.714 187.802 451.304 224.277Z" fill="#407BFF"/>
<path opacity="0.7" d="M451.304 224.277C451.304 224.277 445.491 196.612 447.221 187.075C448.952 177.537 455.151 181.782 455.151 181.782C455.151 181.782 460.846 177.149 462.543 182.255C462.543 182.255 454.714 187.802 451.304 224.277Z" fill="white"/>
<path opacity="0.2" d="M522.704 224.48C514.102 219.626 512.959 206.961 512.959 206.961C513.48 206.758 516.672 205.659 520.032 204.543C521.023 210.867 521.914 217.631 522.704 224.48Z" fill="black"/>
<path opacity="0.2" d="M480.636 388.862L487.877 349.208L486.483 328.223C486.483 328.223 476.554 364.613 480.636 388.862Z" fill="black"/>
<path opacity="0.2" d="M527.929 287.03C522.519 286.658 517.849 286.303 517.849 286.303L516.824 264.168C518.51 263.105 520.534 262.73 522.485 263.119C523.815 259.583 524.821 255.932 525.492 252.212C526.668 266.569 527.492 279.285 527.929 287.03Z" fill="black"/>
<path d="M529.776 252.195L519.243 269.224L527.576 274.043L537.471 258.706L529.776 252.195Z" fill="#FEBCB4"/>
<path d="M514.455 179.651C521.545 180.429 551.684 222.061 553.011 234.609C554.338 247.156 535.304 268.818 535.304 268.818L522.603 261.293C522.603 261.293 535.505 241.322 536.177 235.928C536.849 230.533 512.573 208.736 512.573 208.736C510.738 203.715 509.728 198.426 509.583 193.078C509.247 183.912 514.455 179.651 514.455 179.651Z" fill="#407BFF"/>
<path d="M516.807 264.184C516.807 264.184 527.643 266.518 532.011 273.384C532.011 273.384 527.475 287.672 524.233 289.228C520.99 290.784 512.96 290.784 512.96 290.784C512.96 290.784 512.439 274.888 516.807 264.184Z" fill="#407BFF"/>
</svg>
